<?xml version="1.0" encoding="UTF-8"?>
<svg version="1.1" xmlns="http://www.w3.org/2000/svg" width="219" height="231">
<path d="M0 0 C72.27 0 144.54 0 219 0 C219 76.23 219 152.46 219 231 C146.73 231 74.46 231 0 231 C0 154.77 0 78.54 0 0 Z " fill="#FEFEFE" transform="translate(0,0)"/>
<path d="M0 0 C17.82 0 35.64 0 54 0 C54 2.64 54 5.28 54 8 C54.86028809 7.67620361 55.72057617 7.35240723 56.60693359 7.01879883 C62.21503232 5.33491654 67.80855074 5.67227369 73.625 5.6875 C74.83285156 5.67138672 76.04070312 5.65527344 77.28515625 5.63867188 C87.56170428 5.6331409 96.65755638 7.52722546 106.25 11.1875 C107.16265625 11.53167969 108.0753125 11.87585937 109.015625 12.23046875 C109.67046875 12.48441406 110.3253125 12.73835938 111 13 C111.33 11.35 111.66 9.7 112 8 C127.84 8 143.68 8 160 8 C160 18.89 160 29.78 160 41 C142.675 41.495 142.675 41.495 125 42 C127.97 45.96 130.94 49.92 134 54 C135.49831536 56.78901774 136.78334129 59.29113778 137.9375 62.1875 C138.22052979 62.87328125 138.50355957 63.5590625 138.79516602 64.265625 C145.16389356 80.06471611 144.34980249 96.95059254 139 113 C143.95 113 148.9 113 154 113 C154.33 112.34 154.66 111.68 155 111 C155 111.66 155 112.32 155 113 C158.3 113 161.6 113 165 113 C165.33 123.56 165.66 134.12 166 145 C167.32 145.66 168.64 146.32 170 147 C170 147.66 170 148.32 170 149 C169.214543 149.00142502 168.429086 149.00285004 167.61982727 149.00431824 C160.16246296 149.02226037 152.70577886 149.06420137 145.2487154 149.13209057 C141.41630271 149.16616161 137.5842802 149.19143914 133.75170898 149.19555664 C130.04250004 149.19988293 126.33416829 149.22869632 122.6252346 149.27343178 C121.22095059 149.28627036 119.81656085 149.29076373 118.41222572 149.28615379 C109.73233007 149.26432818 102.84172147 150.274205 94.88517761 153.83345032 C81.53129574 159.23275974 62.96333675 157.41719311 49.828125 152.2890625 C47.52379637 151.23874697 45.24708222 150.16717377 43 149 C43.33 148.34 43.66 147.68 44 147 C44.76183594 147.33773437 45.52367187 147.67546875 46.30859375 148.0234375 C47.85740234 148.69246094 47.85740234 148.69246094 49.4375 149.375 C50.44683594 149.81585938 51.45617187 150.25671875 52.49609375 150.7109375 C59.82371864 153.40671923 66.83887474 154.38801772 74.625 154.375 C75.91954102 154.37584595 75.91954102 154.37584595 77.24023438 154.37670898 C85.32325568 154.24005036 92.34265314 152.50878864 100 150 C101.32970213 149.65246421 102.66143822 149.31167492 104 149 C104 148.34 104 147.68 104 147 C105.98 146.34 107.96 145.68 110 145 C109.505 136.09 109.505 136.09 109 127 C107.68 127.33 106.36 127.66 105 128 C100.95600355 125.35618296 98.01637817 121.64582446 96.375 117.125 C95.694375 115.578125 95.694375 115.578125 95 114 C92.42267086 112.94832473 92.42267086 112.94832473 90 113 C90 114.98 90 116.96 90 119 C90.71542969 118.896875 91.43085937 118.79375 92.16796875 118.6875 C96.21332091 119.13388369 97.57023561 121.07491798 100.3125 124 C101.19550781 124.928125 102.07851562 125.85625 102.98828125 126.8125 C103.65214844 127.534375 104.31601563 128.25625 105 129 C102.63987122 131.7083445 100.40006885 132.85019927 97.0625 134.125 C95.78052734 134.62386719 95.78052734 134.62386719 94.47265625 135.1328125 C90.0654603 136.67846416 86.19388317 137.23504477 81.5 137.375 C80.3759375 137.42398438 79.251875 137.47296875 78.09375 137.5234375 C74.05169534 136.83955452 73.34407548 135.22994689 71 132 C69.07944638 131.12980582 69.07944638 131.12980582 67.0625 131.0625 C66.08990234 130.95615234 66.08990234 130.95615234 65.09765625 130.84765625 C62.86336707 130.88282815 62.86336707 130.88282815 60.53515625 132.16796875 C58 133 58 133 55.6484375 131.953125 C54.89820313 131.39109375 54.14796875 130.8290625 53.375 130.25 C52.61960938 129.69828125 51.86421875 129.1465625 51.0859375 128.578125 C50.39757812 128.05734375 49.70921875 127.5365625 49 127 C48.01 126.34 47.02 125.68 46 125 C46 124.34 46 123.68 46 123 C45.34 123 44.68 123 44 123 C41.375 120.625 41.375 120.625 39 118 C39 117.34 39 116.68 39 116 C40.79296875 114.30859375 40.79296875 114.30859375 43.1875 112.4375 C44.35345703 111.50744141 44.35345703 111.50744141 45.54296875 110.55859375 C48.09951127 108.936876 50.02120511 108.38623806 53 108 C53 106.35 53 104.7 53 103 C51.68 103 50.36 103 49 103 C48.67 103.845625 48.34 104.69125 48 105.5625 C45.40303964 110.02602562 41.99069194 112.79607155 38 116 C29.82720221 105.88352823 29.68366126 92.40509084 31 80 C33.09803283 70.68678112 37.5390271 63.55081075 44.875 57.4375 C45.24625 56.963125 45.6175 56.48875 46 56 C45.56556275 52.8171239 44.55837187 51.19337066 42.27734375 48.984375 C41.73916016 48.45585938 41.20097656 47.92734375 40.64648438 47.3828125 C40.08251953 46.84398437 39.51855469 46.30515625 38.9375 45.75 C38.36966797 45.19570312 37.80183594 44.64140625 37.21679688 44.0703125 C35.81787531 42.70665786 34.40980886 41.35239583 33 40 C33.66 39.34 34.32 38.68 35 38 C35.89203125 38.9384375 36.7840625 39.876875 37.703125 40.84375 C38.88487968 42.0630207 40.067201 43.28174236 41.25 44.5 C41.83652344 45.12003906 42.42304687 45.74007812 43.02734375 46.37890625 C43.60097656 46.96542969 44.17460938 47.55195312 44.765625 48.15625 C45.28930664 48.70087891 45.81298828 49.24550781 46.35253906 49.80664062 C48.20085957 51.39108617 48.20085957 51.39108617 52 51 C53.35959133 49.69345227 54.69004237 48.35630622 56 47 C66.89690985 40.6973733 79.66889923 40.22522569 91.77734375 42.8046875 C96.39923745 44.25007971 99.66322443 45.47435034 103 49 C104.37229925 49.9314842 105.76940337 50.82734303 107.1875 51.6875 C107.90292969 52.12449219 108.61835938 52.56148437 109.35546875 53.01171875 C109.89816406 53.33785156 110.44085938 53.66398437 111 54 C111.55429688 53.278125 112.10859375 52.55625 112.6796875 51.8125 C113.40414062 50.884375 114.12859375 49.95625 114.875 49 C115.59429687 48.071875 116.31359375 47.14375 117.0546875 46.1875 C117.69664062 45.465625 118.33859375 44.74375 119 44 C119.66 44 120.32 44 121 44 C119.59023295 47.03852705 117.91129772 49.5939595 115.875 52.25 C115.33617187 52.95640625 114.79734375 53.6628125 114.2421875 54.390625 C113.83226562 54.92171875 113.42234375 55.4528125 113 56 C113.63228516 56.81404297 113.63228516 56.81404297 114.27734375 57.64453125 C114.82519531 58.35996094 115.37304688 59.07539062 115.9375 59.8125 C116.48277344 60.52019531 117.02804688 61.22789063 117.58984375 61.95703125 C119 64 119 64 120 67 C121.485 67.495 121.485 67.495 123 68 C123 67.34 123 66.68 123 66 C123.99 66 124.98 66 126 66 C126 66.66 126 67.32 126 68 C127.32 67.67 128.64 67.34 130 67 C130.33 67.99 130.66 68.98 131 70 C130.67 70.66 130.34 71.32 130 72 C130.99 72 131.98 72 133 72 C133 72.99 133 73.98 133 75 C132.01 75.495 132.01 75.495 131 76 C130.34786708 78.02463255 130.34786708 78.02463255 130 80 C129.01 80 128.02 80 127 80 C126.96132813 81.72283203 126.96132813 81.72283203 126.921875 83.48046875 C126.58067089 93.87821496 125.74205926 103.51588148 121 113 C128.92 112.505 128.92 112.505 137 112 C142.45960191 93.57384354 142.022252 74.93018826 133.3203125 57.66796875 C131.66288931 54.68092385 129.89819855 51.83878572 128 49 C127.29230469 47.88044922 127.29230469 47.88044922 126.5703125 46.73828125 C124.422075 43.74652676 123.04531542 42.25779207 119.40234375 41.359375 C116.91258367 41.09324031 114.50222125 40.96538429 112 41 C112 38.36 112 35.72 112 33 C111.29359375 32.7215625 110.5871875 32.443125 109.859375 32.15625 C107.96362324 31.38966186 106.07775612 30.59812837 104.203125 29.78125 C103.22859375 29.3584375 102.2540625 28.935625 101.25 28.5 C100.28578125 28.0771875 99.3215625 27.654375 98.328125 27.21875 C90.14373121 24.22164805 82.55389477 23.71007826 73.875 23.8125 C72.30685547 23.8134668 72.30685547 23.8134668 70.70703125 23.81445312 C65.37073732 23.84481131 60.25671525 24.06927846 55 25 C55 27.31 55 29.62 55 32 C56.65 32.33 58.3 32.66 60 33 C60 33.99 60 34.98 60 36 C59.26998779 35.97268799 58.53997559 35.94537598 57.7878418 35.91723633 C43.35430477 34.86481487 43.35430477 34.86481487 30.0703125 39.12890625 C27.25832432 41.92894547 25.1279763 44.65425601 23 48 C22.278125 49.04800781 21.55625 50.09601563 20.8125 51.17578125 C19.10941679 53.74038507 17.51731546 56.3226891 16 59 C15.67 58.34 15.34 57.68 15 57 C16.1171875 54.71484375 16.1171875 54.71484375 17.875 51.9375 C18.42929687 51.03902344 18.98359375 50.14054687 19.5546875 49.21484375 C22.93264968 44.77384874 27.05455547 40.94544453 31 37 C12.685 36.505 12.685 36.505 -6 36 C-5.67 35.01 -5.34 34.02 -5 33 C-3.68 32.34 -2.36 31.68 -1 31 C-0.67 20.77 -0.34 10.54 0 0 Z " fill="#FBFBFB" transform="translate(31,32)"/>
<path d="M0 0 C0 2.64 0 5.28 0 8 C0.61746094 7.87238281 1.23492187 7.74476562 1.87109375 7.61328125 C4.86091971 7.26287547 7.06240307 7.2902175 10 8 C19.84400145 15.95458827 26.36327282 30.8725969 29 43 C29.39098284 46.78297772 29.42883717 50.51204159 29.375 54.3125 C29.36847412 55.31490723 29.36194824 56.31731445 29.35522461 57.35009766 C29.01947338 75.98052662 29.01947338 75.98052662 25 80 C22.30345146 80.07319621 19.63308542 80.09242537 16.9375 80.0625 C16.17888672 80.05798828 15.42027344 80.05347656 14.63867188 80.04882812 C12.75908129 80.0370068 10.87953101 80.01907078 9 80 C9.30744141 79.00419922 9.30744141 79.00419922 9.62109375 77.98828125 C10.02521484 76.66376953 10.02521484 76.66376953 10.4375 75.3125 C10.70433594 74.44238281 10.97117188 73.57226562 11.24609375 72.67578125 C12.84570231 66.99841408 13.27999011 61.55536933 13.5625 55.6875 C13.62727539 54.43356445 13.62727539 54.43356445 13.69335938 53.15429688 C13.79885307 51.10303065 13.89987315 49.0515352 14 47 C14.639375 46.731875 15.27875 46.46375 15.9375 46.1875 C18.33131686 45.11332248 18.33131686 45.11332248 19 42 C19.66 42 20.32 42 21 42 C21 41.01 21 40.02 21 39 C20.01 39 19.02 39 18 39 C18 37.68 18 36.36 18 35 C16.68 35 15.36 35 14 35 C14 34.34 14 33.68 14 33 C13.01 33 12.02 33 11 33 C11 33.66 11 34.32 11 35 C9.25 34.9375 9.25 34.9375 7 34 C5.95793182 32.32637534 4.91666359 30.64627432 4.02734375 28.88671875 C2.81631632 26.55456946 2.81631632 26.55456946 0 23 C2.97 19.04 5.94 15.08 9 11 C4.92229821 15.04781328 4.92229821 15.04781328 1.1875 19.3125 C0.465625 20.199375 -0.25625 21.08625 -1 22 C-2.83863505 20.88368586 -4.67079723 19.75670373 -6.5 18.625 C-7.5209375 17.99851562 -8.541875 17.37203125 -9.59375 16.7265625 C-10.3878125 16.15679687 -11.181875 15.58703125 -12 15 C-12 14.34 -12 13.68 -12 13 C-25.62437079 8.43134872 -40.12095425 7.89203283 -53.43359375 13.515625 C-56.10330028 14.88689085 -56.10330028 14.88689085 -58.03515625 17.234375 C-60 19 -60 19 -62.35546875 19.12890625 C-66.1586162 17.50540608 -68.50843533 14.91873522 -71.3125 11.9375 C-71.86228516 11.36966797 -72.41207031 10.80183594 -72.97851562 10.21679688 C-74.32827365 8.82009075 -75.66541525 7.41121163 -77 6 C-77.23483857 8.39274804 -77.23483857 8.39274804 -74.33984375 10.6796875 C-72.63296817 12.29587902 -70.9142817 13.89618251 -69.17773438 15.48046875 C-67.52734375 17.0546875 -67.52734375 17.0546875 -65 20 C-65.41771819 23.32021362 -66.66117822 25.10086235 -68.875 27.5625 C-69.64457031 28.43068359 -69.64457031 28.43068359 -70.4296875 29.31640625 C-72 31 -72 31 -73.5625 32.4375 C-75.28257002 34.30714133 -76.12642633 36.1061843 -77.125 38.4375 C-77.45757812 39.19933594 -77.79015625 39.96117187 -78.1328125 40.74609375 C-82.32948203 51.65365376 -81.20661064 66.1073792 -77.0703125 76.78515625 C-75.96595257 79.1999345 -75.96595257 79.1999345 -74 82 C-69.16716651 78.11995791 -65.31417894 74.93008355 -63 69 C-61.35 69.33 -59.7 69.66 -58 70 C-58 71.65 -58 73.3 -58 75 C-58.60328125 75.24234375 -59.2065625 75.4846875 -59.828125 75.734375 C-64.3714648 77.63964653 -67.66586737 79.26577146 -71 83 C-71.66 83 -72.32 83 -73 83 C-73 83.66 -73 84.32 -73 85 C-72.360625 85.268125 -71.72125 85.53625 -71.0625 85.8125 C-69 87 -69 87 -68 90 C-67.34 90 -66.68 90 -66 90 C-66 90.66 -66 91.32 -66 92 C-65.13181641 92.40992188 -65.13181641 92.40992188 -64.24609375 92.828125 C-62.03202959 93.98328891 -60.10109234 95.31289332 -58.0625 96.75 C-56.01896477 98.10783522 -56.01896477 98.10783522 -54 99 C-51.44288628 98.31068333 -51.44288628 98.31068333 -49 97 C-44.80161204 96.84794571 -41.84472964 97.34533453 -38.5 99.9375 C-37 102 -37 102 -37 104 C-26.79125542 103.67068566 -16.16643374 102.72529838 -8 96 C-9.38285144 94.50868963 -10.78185739 93.03234815 -12.1875 91.5625 C-12.96480469 90.73878906 -13.74210937 89.91507812 -14.54296875 89.06640625 C-17.1461801 86.87705998 -18.66227956 86.32606505 -22 86 C-23.125 82.25 -23.125 82.25 -22 80 C-20.35 80 -18.7 80 -17 80 C-16.46375 81.19625 -15.9275 82.3925 -15.375 83.625 C-13.15866126 88.01851955 -10.86455616 90.92412877 -7 94 C-5.35 93.67 -3.7 93.34 -2 93 C-2 99.27 -2 105.54 -2 112 C-3.98 112.66 -5.96 113.32 -8 114 C-8 114.66 -8 115.32 -8 116 C-9.47515555 116.63440928 -10.95543332 117.25690827 -12.4375 117.875 C-13.67306641 118.39707031 -13.67306641 118.39707031 -14.93359375 118.9296875 C-22.11583453 121.43660976 -29.03562014 122.38917878 -36.625 122.375 C-37.48947754 122.37411377 -38.35395508 122.37322754 -39.24462891 122.37231445 C-49.58125103 122.18442789 -58.81228736 119.84367328 -68 115 C-66.0857484 116.9142516 -63.17035894 117.54994052 -60.6875 118.5 C-59.53636719 118.9434375 -58.38523437 119.386875 -57.19921875 119.84375 C-44.46981983 124.44436304 -26.63450309 123.86558518 -14 119 C-12.94361328 118.49146484 -11.88722656 117.98292969 -10.79882812 117.45898438 C-7.05592856 115.85530169 -3.84531575 115.65435216 0.24609375 115.70703125 C0.90207047 115.71127609 1.55804718 115.71552094 2.23390198 115.71989441 C4.30220911 115.73651221 6.36949401 115.77412762 8.4375 115.8125 C9.85089725 115.82756889 11.26430998 115.84125341 12.67773438 115.85351562 C16.11881435 115.88635896 19.55930719 115.93801985 23 116 C6.85823897 132.2079497 -13.43578824 141.16923066 -36.375 141.3125 C-59.71186352 141.3125 -78.47360052 133.20201419 -96 118 C-96.33 117.67 -96.66 117.34 -97 117 C-98.94050223 116.89045552 -100.88463505 116.84411161 -102.828125 116.82421875 C-104.02050781 116.80037109 -105.21289062 116.77652344 -106.44140625 116.75195312 C-108.96467595 116.70925164 -111.48816429 116.67785698 -114.01171875 116.65820312 C-115.20925781 116.63048828 -116.40679687 116.60277344 -117.640625 116.57421875 C-118.73922852 116.55963623 -119.83783203 116.54505371 -120.96972656 116.5300293 C-124.68615735 115.87998327 -126.35495304 114.65247686 -129 112 C-130.125 108.5625 -130.125 108.5625 -130 105 C-127.75 102.0625 -127.75 102.0625 -125 100 C-124.01 100 -123.02 100 -122 100 C-122.04125 98.88625 -122.0825 97.7725 -122.125 96.625 C-122 93 -122 93 -120 91 C-117.375 90.875 -117.375 90.875 -115 91 C-115.52400391 89.49759766 -115.52400391 89.49759766 -116.05859375 87.96484375 C-116.51855513 86.62250748 -116.97817219 85.2800532 -117.4375 83.9375 C-117.66759766 83.28072266 -117.89769531 82.62394531 -118.13476562 81.94726562 C-120.09744724 76.17299941 -120.99548346 70.62515212 -121.140625 64.51953125 C-121.15996094 63.74802734 -121.17929688 62.97652344 -121.19921875 62.18164062 C-121.23331851 60.59075579 -121.25132096 58.99945128 -121.25390625 57.40820312 C-121.36725693 52.44930853 -121.36725693 52.44930853 -124.4296875 48.6484375 C-125.27789062 48.10445312 -126.12609375 47.56046875 -127 47 C-129.80400089 42.23319848 -130.47704599 38.50946647 -129.64453125 33.1484375 C-128.35760334 28.8586778 -125.70032334 26.20668108 -122.0625 23.625 C-119.32640504 22.79588032 -116.83983385 22.87091664 -114 23 C-113.74089844 22.12730469 -113.48179688 21.25460938 -113.21484375 20.35546875 C-111.99318239 16.98116937 -110.51100737 14.31697265 -108.5625 11.3125 C-107.96566406 10.38050781 -107.36882812 9.44851562 -106.75390625 8.48828125 C-104.02109362 4.61121745 -104.02109362 4.61121745 -102 3 C-99.63989258 2.65942383 -99.63989258 2.65942383 -96.89453125 2.70703125 C-95.91162109 2.71669922 -94.92871094 2.72636719 -93.91601562 2.73632812 C-92.89185547 2.76146484 -91.86769531 2.78660156 -90.8125 2.8125 C-89.25885742 2.83280273 -89.25885742 2.83280273 -87.67382812 2.85351562 C-85.11536301 2.88888611 -82.5579422 2.93824456 -80 3 C-83.53638764 7.13659361 -87.08986924 11.25444949 -90.703125 15.32421875 C-92.09495367 17.12269616 -93.0483727 18.93963711 -94 21 C-93.59910156 20.45472656 -93.19820312 19.90945312 -92.78515625 19.34765625 C-92.21667969 18.59355469 -91.64820313 17.83945313 -91.0625 17.0625 C-90.51722656 16.33160156 -89.97195312 15.60070312 -89.41015625 14.84765625 C-88.61480469 13.90792969 -87.81945312 12.96820313 -87 12 C-86.41081787 11.23937256 -85.82163574 10.47874512 -85.21459961 9.69506836 C-82.06124938 6.01319529 -79.66274614 3.37986199 -74.83569336 2.27709961 C-71.32847078 2.11627326 -67.940565 2.21068284 -64.4375 2.4375 C-62.63829102 2.4984082 -62.63829102 2.4984082 -60.80273438 2.56054688 C-57.8642016 2.66591259 -54.93429352 2.8132345 -52 3 C-52 2.01 -52 1.02 -52 0 C-53.65 -0.33 -55.3 -0.66 -57 -1 C-57 -3.31 -57 -5.62 -57 -8 C-38.48052118 -14.50262599 -16.22299492 -10.11829205 0 0 Z " fill="#FCFCFD" transform="translate(143,65)"/>
<path d="M0 0 C17.82 0 35.64 0 54 0 C54 2.64 54 5.28 54 8 C54.86028809 7.67620361 55.72057617 7.35240723 56.60693359 7.01879883 C62.21503232 5.33491654 67.80855074 5.67227369 73.625 5.6875 C74.83285156 5.67138672 76.04070312 5.65527344 77.28515625 5.63867188 C87.56170428 5.6331409 96.65755638 7.52722546 106.25 11.1875 C107.16265625 11.53167969 108.0753125 11.87585937 109.015625 12.23046875 C109.67046875 12.48441406 110.3253125 12.73835938 111 13 C111.33 11.35 111.66 9.7 112 8 C127.84 8 143.68 8 160 8 C160 18.89 160 29.78 160 41 C142.675 41.495 142.675 41.495 125 42 C127.97 45.96 130.94 49.92 134 54 C135.49831536 56.78901774 136.78334129 59.29113778 137.9375 62.1875 C138.22052979 62.87328125 138.50355957 63.5590625 138.79516602 64.265625 C145.16389356 80.06471611 144.34980249 96.95059254 139 113 C143.95 113 148.9 113 154 113 C154.33 112.34 154.66 111.68 155 111 C155 111.66 155 112.32 155 113 C158.3 113 161.6 113 165 113 C165.33 123.56 165.66 134.12 166 145 C167.32 145.66 168.64 146.32 170 147 C170 147.66 170 148.32 170 149 C169.214543 149.00142502 168.429086 149.00285004 167.61982727 149.00431824 C160.16246296 149.02226037 152.70577886 149.06420137 145.2487154 149.13209057 C141.41630271 149.16616161 137.5842802 149.19143914 133.75170898 149.19555664 C130.04250004 149.19988293 126.33416829 149.22869632 122.6252346 149.27343178 C121.22095059 149.28627036 119.81656085 149.29076373 118.41222572 149.28615379 C109.73233007 149.26432818 102.84172147 150.274205 94.88517761 153.83345032 C81.53129574 159.23275974 62.96333675 157.41719311 49.828125 152.2890625 C47.52379637 151.23874697 45.24708222 150.16717377 43 149 C43.33 148.34 43.66 147.68 44 147 C44.76183594 147.33773437 45.52367187 147.67546875 46.30859375 148.0234375 C47.85740234 148.69246094 47.85740234 148.69246094 49.4375 149.375 C50.44683594 149.81585938 51.45617187 150.25671875 52.49609375 150.7109375 C59.82371864 153.40671923 66.83887474 154.38801772 74.625 154.375 C75.91954102 154.37584595 75.91954102 154.37584595 77.24023438 154.37670898 C85.32325568 154.24005036 92.34265314 152.50878864 100 150 C101.32970213 149.65246421 102.66143822 149.31167492 104 149 C104 148.34 104 147.68 104 147 C105.98 146.34 107.96 145.68 110 145 C110 134.44 110 123.88 110 113 C118.91 112.67 127.82 112.34 137 112 C139.00518936 103.31084611 140.55934745 96.2889765 140.5 87.625 C140.49427979 86.63330811 140.48855957 85.64161621 140.48266602 84.61987305 C140.15813368 71.16325445 135.45604433 60.15063132 128 49 C127.29230469 47.88044922 127.29230469 47.88044922 126.5703125 46.73828125 C124.422075 43.74652676 123.04531542 42.25779207 119.40234375 41.359375 C116.91258367 41.09324031 114.50222125 40.96538429 112 41 C112 38.36 112 35.72 112 33 C111.29359375 32.7215625 110.5871875 32.443125 109.859375 32.15625 C107.96362324 31.38966186 106.07775612 30.59812837 104.203125 29.78125 C103.22859375 29.3584375 102.2540625 28.935625 101.25 28.5 C100.28578125 28.0771875 99.3215625 27.654375 98.328125 27.21875 C90.14373121 24.22164805 82.55389477 23.71007826 73.875 23.8125 C72.30685547 23.8134668 72.30685547 23.8134668 70.70703125 23.81445312 C65.37073732 23.84481131 60.25671525 24.06927846 55 25 C55 27.31 55 29.62 55 32 C56.65 32.33 58.3 32.66 60 33 C60 33.99 60 34.98 60 36 C59.26998779 35.97268799 58.53997559 35.94537598 57.7878418 35.91723633 C43.35430477 34.86481487 43.35430477 34.86481487 30.0703125 39.12890625 C27.25832432 41.92894547 25.1279763 44.65425601 23 48 C22.278125 49.04800781 21.55625 50.09601563 20.8125 51.17578125 C19.10941679 53.74038507 17.51731546 56.3226891 16 59 C15.67 58.34 15.34 57.68 15 57 C16.1171875 54.71484375 16.1171875 54.71484375 17.875 51.9375 C18.42929687 51.03902344 18.98359375 50.14054687 19.5546875 49.21484375 C22.93264968 44.77384874 27.05455547 40.94544453 31 37 C12.685 36.505 12.685 36.505 -6 36 C-5.67 35.01 -5.34 34.02 -5 33 C-3.68 32.34 -2.36 31.68 -1 31 C-0.67 20.77 -0.34 10.54 0 0 Z " fill="#5E7C9D" transform="translate(31,32)"/>
<path d="M0 0 C0.93665858 2.80997574 1.08778384 4.29554574 0.9921875 7.17578125 C0.2251332 22.45601941 0.2251332 22.45601941 4 37 C6.33835003 38.53712767 8.17669277 39.06597945 10.91796875 39.56640625 C13 40 13 40 14.8125 42.0625 C15.4003125 43.0215625 15.4003125 43.0215625 16 44 C18.08334635 45.2516467 18.08334635 45.2516467 20 46 C20 46.66 20 47.32 20 48 C21.11375 48.0928125 21.11375 48.0928125 22.25 48.1875 C25.91859961 49.27140443 27.02052923 50.77419579 29 54 C29.25 56.8125 29.25 56.8125 29 59 C30.423125 59.1546875 30.423125 59.1546875 31.875 59.3125 C35 60 35 60 37 63 C36.70295038 67.15869464 36.33061852 69.50407222 34 73 C35.29093133 73.43966502 36.58280836 73.87655299 37.875 74.3125 C38.59429687 74.55613281 39.31359375 74.79976563 40.0546875 75.05078125 C41.02664062 75.36402344 41.99859375 75.67726563 43 76 C43.70431152 76.25136719 44.40862305 76.50273437 45.13427734 76.76171875 C51.80011222 78.99920178 57.87195697 79.47023025 64.875 79.375 C65.93130615 79.36702393 66.9876123 79.35904785 68.07592773 79.35083008 C76.77128846 79.19173176 84.28326047 78.27059639 92.20117188 74.45898438 C95.94407144 72.85530169 99.15468425 72.65435216 103.24609375 72.70703125 C103.90207047 72.71127609 104.55804718 72.71552094 105.23390198 72.71989441 C107.30220911 72.73651221 109.36949401 72.77412762 111.4375 72.8125 C112.85089725 72.82756889 114.26430998 72.84125341 115.67773438 72.85351562 C119.11881435 72.88635896 122.55930719 72.93801985 126 73 C109.85823897 89.2079497 89.56421176 98.16923066 66.625 98.3125 C43.28813648 98.3125 24.52639948 90.20201419 7 75 C6.67 74.67 6.34 74.34 6 74 C4.05949777 73.89045552 2.11536495 73.84411161 0.171875 73.82421875 C-1.02050781 73.80037109 -2.21289062 73.77652344 -3.44140625 73.75195312 C-5.96467595 73.70925164 -8.48816429 73.67785698 -11.01171875 73.65820312 C-12.20925781 73.63048828 -13.40679687 73.60277344 -14.640625 73.57421875 C-15.73922852 73.55963623 -16.83783203 73.54505371 -17.96972656 73.5300293 C-21.68615735 72.87998327 -23.35495304 71.65247686 -26 69 C-27.125 65.5625 -27.125 65.5625 -27 62 C-24.75 59.0625 -24.75 59.0625 -22 57 C-21.01 57 -20.02 57 -19 57 C-19.04125 55.88625 -19.0825 54.7725 -19.125 53.625 C-19 50 -19 50 -17 48 C-14.375 47.875 -14.375 47.875 -12 48 C-11.79375 47.278125 -11.5875 46.55625 -11.375 45.8125 C-9.03912882 41.03458168 -5.51531284 38.58928833 -0.625 36.6875 C0.674375 36.3471875 0.674375 36.3471875 2 36 C1.7834375 35.38898438 1.566875 34.77796875 1.34375 34.1484375 C-1.4152638 25.07945696 -4.37719898 8.75439796 0 0 Z " fill="#8EB1DE" transform="translate(40,108)"/>
<path d="M0 0 C17.82 0 35.64 0 54 0 C54 2.64 54 5.28 54 8 C54.86028809 7.67620361 55.72057617 7.35240723 56.60693359 7.01879883 C62.21503232 5.33491654 67.80855074 5.67227369 73.625 5.6875 C74.83285156 5.67138672 76.04070312 5.65527344 77.28515625 5.63867188 C90.09099071 5.63177961 100.42353038 8.90084076 112 14 C112 19.94 112 25.88 112 32 C110.06125 31.071875 108.1225 30.14375 106.125 29.1875 C94.58389224 23.86855468 84.23944023 21.81885333 71.5625 21.9375 C70.17901367 21.94426758 70.17901367 21.94426758 68.76757812 21.95117188 C66.51164952 21.96286062 64.25586033 21.97924545 62 22 C62 22.66 62 23.32 62 24 C59.69 24.33 57.38 24.66 55 25 C55 27.31 55 29.62 55 32 C56.65 32.33 58.3 32.66 60 33 C60 33.99 60 34.98 60 36 C59.26998779 35.97268799 58.53997559 35.94537598 57.7878418 35.91723633 C43.35430477 34.86481487 43.35430477 34.86481487 30.0703125 39.12890625 C27.25832432 41.92894547 25.1279763 44.65425601 23 48 C22.278125 49.04800781 21.55625 50.09601563 20.8125 51.17578125 C19.10941679 53.74038507 17.51731546 56.3226891 16 59 C15.67 58.34 15.34 57.68 15 57 C16.1171875 54.71484375 16.1171875 54.71484375 17.875 51.9375 C18.42929687 51.03902344 18.98359375 50.14054687 19.5546875 49.21484375 C22.93264968 44.77384874 27.05455547 40.94544453 31 37 C12.685 36.505 12.685 36.505 -6 36 C-5.67 35.01 -5.34 34.02 -5 33 C-3.68 32.34 -2.36 31.68 -1 31 C-0.67 20.77 -0.34 10.54 0 0 Z " fill="#7F7164" transform="translate(31,32)"/>
<path d="M0 0 C0 2.64 0 5.28 0 8 C0.61746094 7.87238281 1.23492187 7.74476562 1.87109375 7.61328125 C4.86091971 7.26287547 7.06240307 7.2902175 10 8 C19.84400145 15.95458827 26.36327282 30.8725969 29 43 C29.39098284 46.78297772 29.42883717 50.51204159 29.375 54.3125 C29.36847412 55.31490723 29.36194824 56.31731445 29.35522461 57.35009766 C29.01947338 75.98052662 29.01947338 75.98052662 25 80 C22.30345146 80.07319621 19.63308542 80.09242537 16.9375 80.0625 C16.17888672 80.05798828 15.42027344 80.05347656 14.63867188 80.04882812 C12.75908129 80.0370068 10.87953101 80.01907078 9 80 C9.20496094 79.33613281 9.40992188 78.67226562 9.62109375 77.98828125 C9.89050781 77.10527344 10.15992188 76.22226563 10.4375 75.3125 C10.70433594 74.44238281 10.97117187 73.57226562 11.24609375 72.67578125 C12.84570231 66.99841408 13.27999011 61.55536933 13.5625 55.6875 C13.62727539 54.43356445 13.62727539 54.43356445 13.69335938 53.15429688 C13.79885307 51.10303065 13.89987315 49.0515352 14 47 C14.639375 46.731875 15.27875 46.46375 15.9375 46.1875 C18.33131686 45.11332248 18.33131686 45.11332248 19 42 C19.66 42 20.32 42 21 42 C21 41.01 21 40.02 21 39 C20.01 39 19.02 39 18 39 C18 37.68 18 36.36 18 35 C16.68 35 15.36 35 14 35 C14 34.34 14 33.68 14 33 C13.01 33 12.02 33 11 33 C11 33.66 11 34.32 11 35 C9.25 34.9375 9.25 34.9375 7 34 C5.95793182 32.32637534 4.91666359 30.64627432 4.02734375 28.88671875 C2.81631632 26.55456946 2.81631632 26.55456946 0 23 C2.97 19.04 5.94 15.08 9 11 C4.92229821 15.04781328 4.92229821 15.04781328 1.1875 19.3125 C0.465625 20.199375 -0.25625 21.08625 -1 22 C-2.83863505 20.88368586 -4.67079723 19.75670373 -6.5 18.625 C-7.5209375 17.99851562 -8.541875 17.37203125 -9.59375 16.7265625 C-10.3878125 16.15679687 -11.181875 15.58703125 -12 15 C-12 14.34 -12 13.68 -12 13 C-25.62437079 8.43134872 -40.12095425 7.89203283 -53.43359375 13.515625 C-56.10330028 14.88689085 -56.10330028 14.88689085 -58.03515625 17.234375 C-60 19 -60 19 -62.36328125 19.12109375 C-66.11970474 17.52391813 -68.42101604 15.00680493 -71.1875 12.0625 C-71.98704102 11.23588867 -71.98704102 11.23588867 -72.80273438 10.39257812 C-74.20975297 8.93600416 -75.60554499 7.46860623 -77 6 C-77.66 5.34 -78.32 4.68 -79 4 C-78 3 -78 3 -75.49975586 2.88647461 C-74.41573486 2.89171143 -73.33171387 2.89694824 -72.21484375 2.90234375 C-70.46010742 2.90717773 -70.46010742 2.90717773 -68.66992188 2.91210938 C-66.82237305 2.92467773 -66.82237305 2.92467773 -64.9375 2.9375 C-63.08415039 2.94426758 -63.08415039 2.94426758 -61.19335938 2.95117188 C-58.12885883 2.96300392 -55.06445279 2.97948827 -52 3 C-52 2.01 -52 1.02 -52 0 C-54.475 -0.495 -54.475 -0.495 -57 -1 C-57 -3.31 -57 -5.62 -57 -8 C-38.48052118 -14.50262599 -16.22299492 -10.11829205 0 0 Z " fill="#FBFBFB" transform="translate(143,65)"/>
<path d="M0 0 C0.66451172 -0.020625 1.32902344 -0.04125 2.01367188 -0.0625 C7.70604765 -0.10666974 10.25951068 1.073879 16.0625 3.25 C16.0625 18.76 16.0625 34.27 16.0625 50.25 C7.04682359 52.5039191 7.04682359 52.5039191 2.6796875 52.515625 C1.73996094 52.51820313 0.80023438 52.52078125 -0.16796875 52.5234375 C-1.12316406 52.51570313 -2.07835938 52.50796875 -3.0625 52.5 C-4.50689453 52.51160156 -4.50689453 52.51160156 -5.98046875 52.5234375 C-6.91761719 52.52085937 -7.85476562 52.51828125 -8.8203125 52.515625 C-9.65965332 52.51336914 -10.49899414 52.51111328 -11.36376953 52.50878906 C-13.9375 52.25 -13.9375 52.25 -19.9375 50.25 C-19.9375 34.74 -19.9375 19.23 -19.9375 3.25 C-13.28306934 0.58822773 -7.1113861 0.05486122 0 0 Z " fill="#1164B4" transform="translate(109.9375,88.75)"/>
<path d="M0 0 C0.98291016 0.00966797 1.96582031 0.01933594 2.97851562 0.02929688 C4.00267578 0.05443359 5.02683594 0.07957031 6.08203125 0.10546875 C7.63567383 0.12577148 7.63567383 0.12577148 9.22070312 0.14648438 C11.77916824 0.18185486 14.33658905 0.23121331 16.89453125 0.29296875 C13.43506145 4.34376489 9.9571356 8.37053681 6.38671875 12.32421875 C2.03615212 18.06423336 -0.01012798 23.6389696 -1.73046875 30.54296875 C-2.1343143 32.13279111 -2.54298036 33.72139867 -2.95703125 35.30859375 C-3.13057129 36.00243164 -3.30411133 36.69626953 -3.48291016 37.41113281 C-4.10546875 39.29296875 -4.10546875 39.29296875 -6.10546875 42.29296875 C-6.5443364 45.73447132 -6.43635552 49.2014873 -6.41796875 52.66796875 C-6.41667969 53.6542627 -6.41539063 54.64055664 -6.4140625 55.65673828 C-6.31474817 63.23318057 -5.40427161 70.04079307 -3.10546875 77.29296875 C-3.69714844 77.43992187 -4.28882812 77.586875 -4.8984375 77.73828125 C-10.84049461 79.42493368 -13.5975501 81.20082877 -17.10546875 86.29296875 C-19.10546875 85.29296875 -19.10546875 85.29296875 -20.140625 82.81640625 C-20.47964844 81.77742188 -20.81867187 80.7384375 -21.16796875 79.66796875 C-21.50957031 78.64445312 -21.85117187 77.6209375 -22.203125 76.56640625 C-23.55645333 71.65692946 -24.13045815 66.88970965 -24.24609375 61.8125 C-24.26542969 61.04099609 -24.28476562 60.26949219 -24.3046875 59.47460938 C-24.33878726 57.88372454 -24.35678971 56.29242003 -24.359375 54.70117188 C-24.47272568 49.74227728 -24.47272568 49.74227728 -27.53515625 45.94140625 C-28.38335938 45.39742187 -29.2315625 44.8534375 -30.10546875 44.29296875 C-32.90946964 39.52616723 -33.58251474 35.80243522 -32.75 30.44140625 C-31.46307209 26.15164655 -28.80579209 23.49964983 -25.16796875 20.91796875 C-22.43187379 20.08884907 -19.9453026 20.16388539 -17.10546875 20.29296875 C-16.84636719 19.42027344 -16.58726563 18.54757813 -16.3203125 17.6484375 C-15.09865114 14.27413812 -13.61647612 11.6099414 -11.66796875 8.60546875 C-11.07113281 7.67347656 -10.47429688 6.74148437 -9.859375 5.78125 C-6.80462374 1.44744921 -5.47715241 -0.09497952 0 0 Z " fill="#F6951C" transform="translate(46.10546875,67.70703125)"/>
<path d="M0 0 C6.60016926 -0.79673472 13.47029677 -1.559927 20 0 C24.33055139 3.5463237 26.12783773 7.84730776 28 13 C28.52039327 14.29236954 29.04252451 15.58404063 29.56640625 16.875 C33 25.68483401 33 25.68483401 33 30 C34.19625 29.938125 35.3925 29.87625 36.625 29.8125 C40.79034704 29.82721854 43.46642017 30.67104966 47 33 C50.05369147 36.38382028 51.89096315 38.60978012 52.25 43.1875 C51.89737643 48.56500945 50.48063247 52.29502927 46.9375 56.375 C42.75899545 58.68651315 38.71251463 58.81698972 34 59 C34.04125 60.03125 34.0825 61.0625 34.125 62.125 C34 66 34 66 32 72 C26.39 72 20.78 72 15 72 C15.309375 70.515 15.61875 69.03 15.9375 67.5 C20.0940289 46.33412942 18.09868859 28.68718865 7 10 C5.18106713 7.38784829 3.31028754 4.92750343 1.25 2.50390625 C0 1 0 1 0 0 Z " fill="#FCFBFB" transform="translate(155,73)"/>
<path d="M0 0 C2.475 0.495 2.475 0.495 5 1 C5 2.65 5 4.3 5 6 C4.39671875 6.24234375 3.7934375 6.4846875 3.171875 6.734375 C-1.3714648 8.63964653 -4.66586737 10.26577146 -8 14 C-8.66 14 -9.32 14 -10 14 C-10 14.66 -10 15.32 -10 16 C-9.360625 16.268125 -8.72125 16.53625 -8.0625 16.8125 C-6 18 -6 18 -5 21 C-4.34 21 -3.68 21 -3 21 C-3 21.66 -3 22.32 -3 23 C-2.42121094 23.27328125 -1.84242187 23.5465625 -1.24609375 23.828125 C0.96797041 24.98328891 2.89890766 26.31289332 4.9375 27.75 C6.98103523 29.10783522 6.98103523 29.10783522 9 30 C11.55711372 29.31068333 11.55711372 29.31068333 14 28 C18.19838796 27.84794571 21.15527036 28.34533453 24.5 30.9375 C26 33 26 33 26 35 C36.20874458 34.67068566 46.83356626 33.72529838 55 27 C53.61714856 25.50868963 52.21814261 24.03234815 50.8125 22.5625 C50.03519531 21.73878906 49.25789063 20.91507813 48.45703125 20.06640625 C45.8538199 17.87705998 44.33772044 17.32606505 41 17 C39.875 13.25 39.875 13.25 41 11 C42.65 11 44.3 11 46 11 C46.53625 12.19625 47.0725 13.3925 47.625 14.625 C49.84133874 19.01851955 52.13544384 21.92412877 56 25 C57.65 24.67 59.3 24.34 61 24 C61 30.27 61 36.54 61 43 C59.02 43.66 57.04 44.32 55 45 C55 45.66 55 46.32 55 47 C53.52484445 47.63440928 52.04456668 48.25690827 50.5625 48.875 C49.73878906 49.22304687 48.91507812 49.57109375 48.06640625 49.9296875 C40.88416547 52.43660976 33.96437986 53.38917878 26.375 53.375 C25.07828369 53.37367065 25.07828369 53.37367065 23.75537109 53.37231445 C13.41874897 53.18442789 4.18771264 50.84367328 -5 46 C-4.89300781 45.38511719 -4.78601563 44.77023438 -4.67578125 44.13671875 C-4.55589844 43.32847656 -4.43601562 42.52023438 -4.3125 41.6875 C-4.18488281 40.88699219 -4.05726562 40.08648437 -3.92578125 39.26171875 C-3.78236286 36.93160728 -3.78236286 36.93160728 -5.34375 35.25 C-7.21373146 33.83869324 -8.70760548 33.39524043 -11 33 C-11.226875 31.948125 -11.45375 30.89625 -11.6875 29.8125 C-12.79360531 25.8402094 -14.88629885 23.70400363 -18 21 C-16.21930599 16.04198923 -11.78817255 13.35852713 -7.78710938 10.2421875 C-4.02508239 7.20182063 -1.88521097 4.58126536 0 0 Z " fill="#F8F9FA" transform="translate(80,134)"/>
<path d="M0 0 C15.64598328 6.67076807 34.84467789 8.22146319 51 2 C51.969375 1.4740625 52.93875 0.948125 53.9375 0.40625 C59.58552549 -2.05104261 65.90835366 -1.31080189 71.9375 -1.1875 C73.19369141 -1.17396484 74.44988281 -1.16042969 75.74414062 -1.14648438 C78.82987279 -1.11128591 81.91471024 -1.06204305 85 -1 C81.89201605 3.0516664 78.75491096 5.81822132 74.4375 8.5 C73.81472168 8.89018311 73.19194336 9.28036621 72.55029297 9.68237305 C52.94666187 21.74943011 31.00194966 25.13029346 8.375 20.875 C-5.06794664 17.34337842 -20.64684515 10.7107804 -29 -1 C-25.29257072 -1.22716871 -21.58416438 -1.4283696 -17.875 -1.625 C-16.82828125 -1.68945312 -15.7815625 -1.75390625 -14.703125 -1.8203125 C-9.32458424 -2.09264368 -5.01334834 -2.24126161 0 0 Z " fill="#FCFCFC" transform="translate(78,182)"/>
<path d="M0 0 C15.84 0 31.68 0 48 0 C48 8.25 48 16.5 48 25 C31.97021654 25.68945305 16.04282818 26.10695219 0 26 C0 17.42 0 8.84 0 0 Z " fill="#94B5DF" transform="translate(34,35)"/>
<path d="M0 0 C15.84 0 31.68 0 48 0 C48 8.25 48 16.5 48 25 C32.16 25 16.32 25 0 25 C0 16.75 0 8.5 0 0 Z " fill="#97B7DE" transform="translate(144,149)"/>
<path d="M0 0 C13.53 0 27.06 0 41 0 C41 8.58 41 17.16 41 26 C27.47 26 13.94 26 0 26 C0 17.42 0 8.84 0 0 Z " fill="#8DB1DE" transform="translate(147,44)"/>
<path d="M0 0 C1 1 1 1 1.09765625 4.59765625 C1.0909822 6.08596867 1.07902183 7.57426432 1.0625 9.0625 C1.05798828 9.82111328 1.05347656 10.57972656 1.04882812 11.36132812 C1.0370068 13.24091871 1.01907078 15.12046899 1 17 C0.17757812 16.60167969 -0.64484375 16.20335938 -1.4921875 15.79296875 C-19.35799553 7.31393053 -36.56711729 4.68158162 -56 9 C-56 4.05 -56 -0.9 -56 -6 C-36.76887982 -10.27358226 -17.90261247 -8.17229272 0 0 Z " fill="#FCFBFB" transform="translate(142,47)"/>
<path d="M0 0 C5.50401832 1.83467277 7.50867742 8.03916073 10 13 C15 24.67773084 15 24.67773084 15 30 C16.19625 29.938125 17.3925 29.87625 18.625 29.8125 C22.79034704 29.82721854 25.46642017 30.67104966 29 33 C32.05369147 36.38382028 33.89096315 38.60978012 34.25 43.1875 C33.89737643 48.56500945 32.48063247 52.29502927 28.9375 56.375 C24.75899545 58.68651315 20.71251463 58.81698972 16 59 C16.04125 60.03125 16.0825 61.0625 16.125 62.125 C16.00424851 65.86829627 15.35127982 68.53734547 14 72 C13.67 72 13.34 72 13 72 C13.33 67.38 13.66 62.76 14 58 C13.071875 57.484375 12.14375 56.96875 11.1875 56.4375 C7.47335117 53.92032804 6.2151934 51.36039984 5 47 C4.80629828 42.29466243 5.36628943 38.98122927 7.9375 35 C10 33 10 33 12 32 C11.59684273 20.30843906 5.9097081 9.88437903 0 0 Z " fill="#F69927" transform="translate(173,73)"/>
<path d="M0 0 C15.84 0 31.68 0 48 0 C48 10.89 48 21.78 48 33 C42.77139013 33.16676136 37.54296096 33.3294539 32.31396484 33.48217773 C30.53915435 33.53519323 28.76441019 33.59048472 26.98974609 33.64819336 C8.84044984 34.23546659 8.84044984 34.23546659 0 33 C0 30.36 0 27.72 0 25 C-0.70640625 24.7215625 -1.4128125 24.443125 -2.140625 24.15625 C-4.03637676 23.38966186 -5.92224388 22.59812837 -7.796875 21.78125 C-8.77140625 21.3584375 -9.7459375 20.935625 -10.75 20.5 C-11.71421875 20.0771875 -12.6784375 19.654375 -13.671875 19.21875 C-21.89660954 16.20687538 -29.84942885 15.62709609 -38.5625 15.375 C-39.66658203 15.33632813 -40.77066406 15.29765625 -41.90820312 15.2578125 C-44.60531125 15.16440616 -47.3024277 15.07863524 -50 15 C-41.3859694 10.27181249 -28.49033991 12.80666222 -19.33984375 15.0078125 C-12.8912272 16.92354186 -6.61268742 19.25820838 -1 23 C-0.67 15.41 -0.34 7.82 0 0 Z M4 4 C4 12.58 4 21.16 4 30 C17.53 30 31.06 30 45 30 C45 21.42 45 12.84 45 4 C31.47 4 17.94 4 4 4 Z " fill="#286699" transform="translate(143,40)"/>
<path d="M0 0 C0.03738281 1.29292969 0.07476562 2.58585937 0.11328125 3.91796875 C0.47044966 13.97288876 1.18290224 23.29075739 4 33 C3.40832031 33.17015625 2.81664063 33.3403125 2.20703125 33.515625 C-2.63657645 35.00110338 -6.22504826 36.46859353 -10 40 C-14.94938948 28.68710976 -16.6273181 16.26755389 -16 4 C-15.01 4.0825 -14.02 4.165 -13 4.25 C-8.92588827 4.28325805 -6.10893777 2.82504648 -2.6015625 0.875 C-1 0 -1 0 0 0 Z " fill="#FAFAFA" transform="translate(39,112)"/>
<path d="M0 0 C0.33 0 0.66 0 1 0 C1 4.29 1 8.58 1 13 C2.98 13.66 4.96 14.32 7 15 C7 15.66 7 16.32 7 17 C6.214543 17.00142502 5.429086 17.00285004 4.61982727 17.00431824 C-2.83753704 17.02226037 -10.29422114 17.06420137 -17.7512846 17.13209057 C-21.58369729 17.16616161 -25.4157198 17.19143914 -29.24829102 17.19555664 C-32.95749996 17.19988293 -36.66583171 17.22869632 -40.3747654 17.27343178 C-41.77904941 17.28627036 -43.18343915 17.29076373 -44.58777428 17.28615379 C-53.26766993 17.26432818 -60.15827853 18.274205 -68.11482239 21.83345032 C-81.46870426 27.23275974 -100.03666325 25.41719311 -113.171875 20.2890625 C-115.47620363 19.23874697 -117.75291778 18.16717377 -120 17 C-119.67 16.34 -119.34 15.68 -119 15 C-117.85724609 15.50660156 -117.85724609 15.50660156 -116.69140625 16.0234375 C-115.65886719 16.46945313 -114.62632813 16.91546875 -113.5625 17.375 C-112.55316406 17.81585938 -111.54382813 18.25671875 -110.50390625 18.7109375 C-103.17628136 21.40671923 -96.16112526 22.38801772 -88.375 22.375 C-87.51197266 22.37556396 -86.64894531 22.37612793 -85.75976562 22.37670898 C-77.67674432 22.24005036 -70.65734686 20.50878864 -63 18 C-61.67029787 17.65246421 -60.33856178 17.31167492 -59 17 C-59 16.34 -59 15.68 -59 15 C-58.04287109 14.70996094 -58.04287109 14.70996094 -57.06640625 14.4140625 C-56.24011719 14.15367187 -55.41382813 13.89328125 -54.5625 13.625 C-53.73878906 13.36976563 -52.91507812 13.11453125 -52.06640625 12.8515625 C-49.82201984 12.19117773 -49.82201984 12.19117773 -49 10 C-33.16 10 -17.32 10 -1 10 C-1 7.69 -1 5.38 -1 3 C-0.67 2.01 -0.34 1.02 0 0 Z " fill="#3F495A" transform="translate(194,164)"/>
<path d="M0 0 C2.97 0.495 2.97 0.495 6 1 C7.70415124 1.08567636 9.41088546 1.13051952 11.1171875 1.1328125 C12.52291016 1.13474609 12.52291016 1.13474609 13.95703125 1.13671875 C15.40142578 1.13091797 15.40142578 1.13091797 16.875 1.125 C18.30779297 1.13080078 18.30779297 1.13080078 19.76953125 1.13671875 C25.27334794 1.12916893 30.55562861 0.81086382 36 0 C36 4.29 36 8.58 36 13 C29.51758187 14.93093306 23.61855144 15.30460366 16.875 15.25 C15.43060547 15.26160156 15.43060547 15.26160156 13.95703125 15.2734375 C13.01988281 15.27085937 12.08273438 15.26828125 11.1171875 15.265625 C10.27784668 15.26336914 9.43850586 15.26111328 8.57373047 15.25878906 C6 15 6 15 0 13 C0 8.71 0 4.42 0 0 Z " fill="#1166B5" transform="translate(90,126)"/>
<path d="M0 0 C11.22 0 22.44 0 34 0 C34 5.28 34 10.56 34 16 C22.78 16 11.56 16 0 16 C0 14.35 0 12.7 0 11 C7.59 11 15.18 11 23 11 C23 10.34 23 9.68 23 9 C15.41 9 7.82 9 0 9 C0 6.03 0 3.06 0 0 Z " fill="#D2E0F1" transform="translate(42,40)"/>
<path d="M0 0 C0.82741699 0.01047363 1.65483398 0.02094727 2.50732422 0.03173828 C3.85117187 0.04140625 3.85117187 0.04140625 5.22216797 0.05126953 C6.62789062 0.07640625 6.62789062 0.07640625 8.06201172 0.10205078 C9.47933594 0.11558594 9.47933594 0.11558594 10.92529297 0.12939453 C13.26278464 0.15300556 15.59977295 0.18593562 17.93701172 0.22705078 C17.06201172 1.24788411 16.18701172 2.26871745 15.31201172 3.28955078 C14.76432129 3.9327124 14.21663086 4.57587402 13.65234375 5.23852539 C12.57640098 6.48582881 11.48563684 7.72065833 10.37402344 8.9362793 C6.42439403 13.3113223 3.70747416 17.91411767 1.06201172 23.16455078 C0.65982422 23.94378906 0.25763672 24.72302734 -0.15673828 25.52587891 C-1.13386746 27.42197481 -2.09964543 29.32391346 -3.06298828 31.22705078 C-3.50642578 30.62248047 -3.94986328 30.01791016 -4.40673828 29.39501953 C-7.18623842 25.75675873 -9.66134839 22.69426408 -14.06298828 21.22705078 C-13.53091192 16.32634742 -11.29518788 13.03783328 -8.62548828 9.03955078 C-8.2175 8.41113281 -7.80951172 7.78271484 -7.38916016 7.13525391 C-2.92202369 0.32159551 -2.92202369 0.32159551 0 0 Z " fill="#FCFCFC" transform="translate(45.06298828125,67.77294921875)"/>
<path d="M0 0 C0.33 0 0.66 0 1 0 C1.33 7.26 1.66 14.52 2 22 C4.475 22.99 4.475 22.99 7 24 C7 24.99 7 25.98 7 27 C6.26998779 26.97268799 5.53997559 26.94537598 4.7878418 26.91723633 C-9.64569523 25.86481487 -9.64569523 25.86481487 -22.9296875 30.12890625 C-25.74167568 32.92894547 -27.8720237 35.65425601 -30 39 C-30.721875 40.04800781 -31.44375 41.09601563 -32.1875 42.17578125 C-33.89058321 44.74038507 -35.48268454 47.3226891 -37 50 C-37.33 49.34 -37.66 48.68 -38 48 C-36.8828125 45.71484375 -36.8828125 45.71484375 -35.125 42.9375 C-34.57070313 42.03902344 -34.01640625 41.14054687 -33.4453125 40.21484375 C-30.06735032 35.77384874 -25.94544453 31.94544453 -22 28 C-40.315 27.505 -40.315 27.505 -59 27 C-58.505 25.515 -58.505 25.515 -58 24 C-53.48746433 21.97484958 -49.31633315 21.703592 -44.4140625 21.5859375 C-43.71227875 21.56657135 -43.010495 21.5472052 -42.28744507 21.5272522 C-40.06675001 21.46792431 -37.84600177 21.42126083 -35.625 21.375 C-34.11065566 21.33677698 -32.59633206 21.29772278 -31.08203125 21.2578125 C-27.38821169 21.16226266 -23.6942353 21.07806063 -20 21 C-20 20.67 -20 20.34 -20 20 C-14.06 19.67 -8.12 19.34 -2 19 C-1.34 12.73 -0.68 6.46 0 0 Z " fill="#3A4350" transform="translate(84,41)"/>
<path d="M0 0 C11.22 0 22.44 0 34 0 C34 2.97 34 5.94 34 9 C33.236875 9.0825 32.47375 9.165 31.6875 9.25 C28.46619518 10.14896879 27.67634879 11.17667573 26 14 C26 14.33 26 14.66 26 15 C16.58997722 15.18451025 16.58997722 15.18451025 12 14 C12.99 12.68 13.98 11.36 15 10 C10.05 9.67 5.1 9.34 0 9 C0 6.03 0 3.06 0 0 Z " fill="#AFC7E7" transform="translate(150,55)"/>
<path d="M0 0 C1.65 0 3.3 0 5 0 C5 0.99 5 1.98 5 3 C6.65 2.67 8.3 2.34 10 2 C10.99 3.485 10.99 3.485 12 5 C11.67 5.99 11.34 6.98 11 8 C11.99 8.33 12.98 8.66 14 9 C14 10.32 14 11.64 14 13 C13.01 13.33 12.02 13.66 11 14 C11 15.65 11 17.3 11 19 C8 20 8 20 5 19 C4.67 20.32 4.34 21.64 4 23 C2.68 22.67 1.36 22.34 0 22 C0 21.01 0 20.02 0 19 C-1.65 19.33 -3.3 19.66 -5 20 C-5.5534764 17.92446352 -6 16.15634036 -6 14 C-6.99 13.67 -7.98 13.34 -9 13 C-9 11.68 -9 10.36 -9 9 C-8.01 8.67 -7.02 8.34 -6 8 C-6.33 6.68 -6.66 5.36 -7 4 C-5.1875 2.9375 -5.1875 2.9375 -3 2 C-2.01 2.33 -1.02 2.66 0 3 C0 2.01 0 1.02 0 0 Z " fill="#FEF7F1" transform="translate(190,106)"/>
<path d="M0 0 C2.375 -0.1875 2.375 -0.1875 5 0 C5.66 0.99 6.32 1.98 7 3 C8.32 3 9.64 3 11 3 C11 6 11 6 10 9 C11.32 9 12.64 9 14 9 C14 10.32 14 11.64 14 13 C13.01 13.33 12.02 13.66 11 14 C11 15.65 11 17.3 11 19 C8 20 8 20 5 19 C4.67 20.32 4.34 21.64 4 23 C2.68 22.67 1.36 22.34 0 22 C0 21.01 0 20.02 0 19 C-1.65 19.33 -3.3 19.66 -5 20 C-5.66 19.01 -6.32 18.02 -7 17 C-6.34 16.01 -5.68 15.02 -5 14 C-6.32 13.67 -7.64 13.34 -9 13 C-9 11.68 -9 10.36 -9 9 C-8.01 8.67 -7.02 8.34 -6 8 C-6.33 6.68 -6.66 5.36 -7 4 C-5.1875 2.9375 -5.1875 2.9375 -3 2 C-2.01 2.33 -1.02 2.66 0 3 C0 2.01 0 1.02 0 0 Z " fill="#FEF7F1" transform="translate(25,91)"/>
<path d="M0 0 C3.06271326 0.83192412 4.27841185 1.82497785 5.94140625 4.52734375 C6.65139085 9.49723595 6.73258341 11.37654061 3.87890625 15.52734375 C0.17868092 18.0466461 -1.66175935 18.23397785 -6.05859375 17.52734375 C-9.49109518 15.58723425 -10.76025568 14.38506571 -12.05859375 10.65234375 C-12.05859375 6.80643201 -11.1112754 4.75298635 -9.05859375 1.52734375 C-5.63549138 -0.7547245 -3.98540437 -0.65322466 0 0 Z " fill="#8A8B8E" transform="translate(100.05859375,162.47265625)"/>
<path d="M0 0 C11.22 0 22.44 0 34 0 C34 2.31 34 4.62 34 7 C22.78 7 11.56 7 0 7 C0 4.69 0 2.38 0 0 Z " fill="#F6F9FC" transform="translate(151,153)"/>
<path d="M0 0 C11.22 0 22.44 0 34 0 C34 2.31 34 4.62 34 7 C22.78 7 11.56 7 0 7 C0 4.69 0 2.38 0 0 Z " fill="#F6F9FC" transform="translate(150,47)"/>
<path d="M0 0 C3.92519369 0.56717248 5.85666783 2.44322569 8.75 5.0625 C27.08121878 20.44894468 48.74982304 23.35215993 72 22 C88.10679617 20.21469188 105.52800585 11.47199415 117 0 C117.99 0.33 118.98 0.66 120 1 C99.76717424 18.83791985 77.80076282 26.20236499 50.89355469 25.18652344 C32.07455609 23.9734189 14.75256962 14.45278408 1 2 C0.67 1.34 0.34 0.68 0 0 Z " fill="#F79F37" transform="translate(46,181)"/>
<path d="M0 0 C0 4.62 0 9.24 0 14 C-6.04789966 15.07518216 -11.85747593 15.07583363 -18 15 C-18 11.04 -18 7.08 -18 3 C-15.18767959 2.49897155 -12.37515761 1.99912869 -9.5625 1.5 C-8.76005859 1.35691406 -7.95761719 1.21382813 -7.13085938 1.06640625 C-1.11328125 0 -1.11328125 0 0 0 Z " fill="#287FC7" transform="translate(126,110)"/>
<path d="M0 0 C0 4.62 0 9.24 0 14 C-6.22363328 15.03727221 -11.70999709 15.06988892 -18 15 C-18 11.04 -18 7.08 -18 3 C-15.3754034 2.49779928 -12.75036631 1.99814643 -10.125 1.5 C-9.37863281 1.35691406 -8.63226563 1.21382813 -7.86328125 1.06640625 C-2.2265625 0 -2.2265625 0 0 0 Z " fill="#1876C3" transform="translate(126,94)"/>
<path d="M0 0 C0.33 0 0.66 0 1 0 C1 8.25 1 16.5 1 25 C6.28 24.67 11.56 24.34 17 24 C17 23.67 17 23.34 17 23 C15.35 22.67 13.7 22.34 12 22 C12 21.67 12 21.34 12 21 C18.27 21 24.54 21 31 21 C31.33 20.34 31.66 19.68 32 19 C32 19.66 32 20.32 32 21 C35.3 21 38.6 21 42 21 C42 20.34 42 19.68 42 19 C39.03 19 36.06 19 33 19 C33 18.67 33 18.34 33 18 C35.97 18 38.94 18 42 18 C42.495 16.515 42.495 16.515 43 15 C45.0625 13.3125 45.0625 13.3125 47 12 C48 13 48 13 48.09765625 15.72265625 C48.08605469 16.82480469 48.07445312 17.92695312 48.0625 19.0625 C48.05347656 20.16722656 48.04445312 21.27195312 48.03515625 22.41015625 C48.02355469 23.26480469 48.01195312 24.11945312 48 25 C31.98390957 25.72154925 16.0329353 26.10688624 0 26 C0 17.42 0 8.84 0 0 Z " fill="#85A6D0" transform="translate(34,35)"/>
<path d="M0 0 C0 4.29 0 8.58 0 13 C-6.48588343 15.04185219 -11.26163824 14.93588358 -18 14 C-18 10.37 -18 6.74 -18 3 C-15.56318413 2.49645133 -13.12564561 1.99703244 -10.6875 1.5 C-9.99720703 1.35691406 -9.30691406 1.21382813 -8.59570312 1.06640625 C-5.67475227 0.47374956 -2.98891878 0 0 0 Z " fill="#2F83C9" transform="translate(126,126)"/>
<path d="M0 0 C0 0.66 0 1.32 0 2 C-12.36118185 5.62422086 -22.42000992 5.45891604 -35 3 C-35 1.68 -35 0.36 -35 -1 C-23.75991551 -3.66713869 -10.63594971 -5.31797486 0 0 Z " fill="#115283" transform="translate(126,92)"/>
<path d="M0 0 C1.26115631 0.00007553 2.52231262 0.00015106 3.82168579 0.00022888 C5.20322712 0.0053359 6.58476806 0.0105519 7.96630859 0.01586914 C9.37592519 0.01773395 10.78554244 0.01915756 12.19515991 0.02015686 C15.90728542 0.02397706 19.61937187 0.03380311 23.33148193 0.04486084 C27.11860628 0.05508564 30.90573693 0.05965677 34.69287109 0.06469727 C42.12518058 0.07542581 49.55745786 0.09249628 56.98974609 0.11352539 C57.48474609 1.59852539 57.48474609 1.59852539 57.98974609 3.11352539 C57.20428909 3.11495041 56.41883209 3.11637543 55.60957336 3.11784363 C48.15220905 3.13578576 40.69552495 3.17772676 33.23846149 3.24561596 C29.4060488 3.279687 25.57402629 3.30496453 21.74145508 3.30908203 C18.03224614 3.31340832 14.32391439 3.34222171 10.6149807 3.38695717 C9.21069669 3.39979575 7.80630695 3.40428912 6.40197182 3.39967918 C-2.27792383 3.37785357 -9.16853243 4.38773039 -17.12507629 7.94697571 C-30.47895817 13.34628513 -49.04691716 11.53071851 -62.18212891 6.40258789 C-64.48645753 5.35227236 -66.76317169 4.28069917 -69.01025391 3.11352539 C-68.68025391 2.45352539 -68.35025391 1.79352539 -68.01025391 1.11352539 C-67.24841797 1.45125977 -66.48658203 1.78899414 -65.70166016 2.13696289 C-64.66912109 2.58297852 -63.63658203 3.02899414 -62.57275391 3.48852539 C-61.05875 4.14981445 -61.05875 4.14981445 -59.51416016 4.82446289 C-52.18653527 7.52024462 -45.17137916 8.50154311 -37.38525391 8.48852539 C-36.52222656 8.48908936 -35.65919922 8.48965332 -34.77001953 8.49023438 C-26.68699822 8.35357576 -19.66760077 6.62231403 -12.01025391 4.11352539 C-10.68055177 3.76598961 -9.34881568 3.42520031 -8.01025391 3.11352539 C-8.01025391 2.45352539 -8.01025391 1.79352539 -8.01025391 1.11352539 C-5.26360002 -0.25980155 -3.07401323 -0.00612353 0 0 Z " fill="#446C96" transform="translate(143.01025390625,177.886474609375)"/>
<path d="M0 0 C11.22 0 22.44 0 34 0 C34 1.98 34 3.96 34 6 C22.78 6 11.56 6 0 6 C0 4.02 0 2.04 0 0 Z " fill="#FDFDFE" transform="translate(42,40)"/>
<path d="M0 0 C11.27294883 0.89206983 22.57161965 0.67323759 33.87109375 0.62890625 C36.11523337 0.62387927 38.35937409 0.61931849 40.60351562 0.61523438 C46.04689929 0.60432816 51.49024126 0.58768574 56.93359375 0.56640625 C56.93359375 1.55640625 56.93359375 2.54640625 56.93359375 3.56640625 C56.20358154 3.53909424 55.47356934 3.51178223 54.72143555 3.48364258 C40.28789852 2.43122112 40.28789852 2.43122112 27.00390625 6.6953125 C24.19191807 9.49535172 22.06157005 12.22066226 19.93359375 15.56640625 C18.85078125 17.13841797 18.85078125 17.13841797 17.74609375 18.7421875 C16.04301054 21.30679132 14.45090921 23.88909535 12.93359375 26.56640625 C12.60359375 25.90640625 12.27359375 25.24640625 11.93359375 24.56640625 C13.05078125 22.28125 13.05078125 22.28125 14.80859375 19.50390625 C15.36289062 18.60542969 15.9171875 17.70695312 16.48828125 16.78125 C19.86624343 12.34025499 23.98814922 8.51185078 27.93359375 4.56640625 C9.61859375 4.07140625 9.61859375 4.07140625 -9.06640625 3.56640625 C-8.73640625 2.57640625 -8.40640625 1.58640625 -8.06640625 0.56640625 C-5.22778377 -0.85290499 -3.16430556 -0.28725895 0 0 Z " fill="#5E7997" transform="translate(34.06640625,64.43359375)"/>
<path d="M0 0 C7.59 0 15.18 0 23 0 C23 0.66 23 1.32 23 2 C26.3 2 29.6 2 33 2 C33.495 3.98 33.495 3.98 34 6 C22.33333333 6 10.66666667 6 -1 6 C-0.67 4.02 -0.34 2.04 0 0 Z " fill="#C7D8EE" transform="translate(152,164)"/>
<path d="M0 0 C0.33 0 0.66 0 1 0 C1 7.59 1 15.18 1 23 C-8.1796875 23.1953125 -8.1796875 23.1953125 -11 23 C-11.66 22.34 -12.32 21.68 -13 21 C-12.01 20.34 -11.02 19.68 -10 19 C-10.33 18.34 -10.66 17.68 -11 17 C-8.36 17 -5.72 17 -3 17 C-3 15.02 -3 13.04 -3 11 C-5.97 11 -8.94 11 -12 11 C-12 10.67 -12 10.34 -12 10 C-9.03 10 -6.06 10 -3 10 C-3 9.34 -3 8.68 -3 8 C-14.22 8 -25.44 8 -37 8 C-37 7.67 -37 7.34 -37 7 C-25.78 7 -14.56 7 -3 7 C-3 5.02 -3 3.04 -3 1 C-2.505 2.485 -2.505 2.485 -2 4 C-1.34 4 -0.68 4 0 4 C0 2.68 0 1.36 0 0 Z " fill="#87AEDC" transform="translate(187,47)"/>
<path d="M0 0 C0.99 0 1.98 0 3 0 C3 0.66 3 1.32 3 2 C4.32 1.67 5.64 1.34 7 1 C7.33 1.99 7.66 2.98 8 4 C7.67 4.66 7.34 5.32 7 6 C7.99 6 8.98 6 10 6 C10 6.99 10 7.98 10 9 C9.01 9.495 9.01 9.495 8 10 C7.34786708 12.02463255 7.34786708 12.02463255 7 14 C6.01 14 5.02 14 4 14 C3.67 14.66 3.34 15.32 3 16 C2.01 16 1.02 16 0 16 C-0.66 15.34 -1.32 14.68 -2 14 C-2.99 13.67 -3.98 13.34 -5 13 C-5 12.01 -5 11.02 -5 10 C-5.66 9.67 -6.32 9.34 -7 9 C-7 8.01 -7 7.02 -7 6 C-6.01 6 -5.02 6 -4 6 C-4.33 4.68 -4.66 3.36 -5 2 C-3.35 2 -1.7 2 0 2 C0 1.34 0 0.68 0 0 Z " fill="#828387" transform="translate(154,98)"/>
<path d="M0 0 C11.22 0 22.44 0 34 0 C34 1.65 34 3.3 34 5 C22.78 5 11.56 5 0 5 C0 3.35 0 1.7 0 0 Z " fill="#DDE7F4" transform="translate(150,55)"/>
<path d="M0 0 C0.66 0.33 1.32 0.66 2 1 C1.20335937 2.03447266 1.20335937 2.03447266 0.390625 3.08984375 C-3.91926165 8.82325136 -7.4751922 14.27271606 -10 21 C-9.29875 21 -8.5975 21 -7.875 21 C-3.41204442 22.55233238 -1.54217337 26.16489997 1 30 C1.99 27.69 2.98 25.38 4 23 C5.31225809 26.93677426 4.3393954 28.7794262 3.0625 32.6875 C2.68222656 33.86699219 2.30195312 35.04648438 1.91015625 36.26171875 C1.60980469 37.16535156 1.30945313 38.06898437 1 39 C0.67 39 0.34 39 0 39 C0 36.69 0 34.38 0 32 C-1.98 32 -3.96 32 -6 32 C-5.67 30.35 -5.34 28.7 -5 27 C-6.32 27 -7.64 27 -9 27 C-9.66 26.67 -10.32 26.34 -11 26 C-11 25.01 -11 24.02 -11 23 C-11.78375 22.87625 -12.5675 22.7525 -13.375 22.625 C-16 22 -16 22 -18 20 C-16.02 20 -14.04 20 -12 20 C-11.74089844 19.12730469 -11.48179688 18.25460938 -11.21484375 17.35546875 C-9.99318239 13.98116937 -8.51100737 11.31697265 -6.5625 8.3125 C-5.96566406 7.38050781 -5.36882813 6.44851562 -4.75390625 5.48828125 C-3.28810979 3.40874373 -1.86943703 1.70936291 0 0 Z " fill="#F79927" transform="translate(41,68)"/>
<path d="M0 0 C0 4.29 0 8.58 0 13 C-1.32 13 -2.64 13 -4 13 C-4 13.66 -4 14.32 -4 15 C-4.66 15 -5.32 15 -6 15 C-6 15.66 -6 16.32 -6 17 C-9.3 17 -12.6 17 -16 17 C-16 15.35 -16 13.7 -16 12 C-13.03 12 -10.06 12 -7 12 C-7.05220703 10.95199219 -7.05220703 10.95199219 -7.10546875 9.8828125 C-7.14607422 8.51769531 -7.14607422 8.51769531 -7.1875 7.125 C-7.22230469 6.22007812 -7.25710937 5.31515625 -7.29296875 4.3828125 C-7.19628906 3.59648437 -7.09960938 2.81015625 -7 2 C-4 0 -4 0 0 0 Z " fill="#AEC7E7" transform="translate(192,149)"/>
<path d="M0 0 C0.99 0 1.98 0 3 0 C3 0.66 3 1.32 3 2 C4.32 2 5.64 2 7 2 C6.67 3.32 6.34 4.64 6 6 C6.66 6 7.32 6 8 6 C7.625 8.9375 7.625 8.9375 7 12 C6.01 12.495 6.01 12.495 5 13 C4.34 12.67 3.68 12.34 3 12 C3 12.66 3 13.32 3 14 C2.01 14 1.02 14 0 14 C0 13.34 0 12.68 0 12 C-1.32 12 -2.64 12 -4 12 C-4.66 10.02 -5.32 8.04 -6 6 C-5.34 6 -4.68 6 -4 6 C-4 4.68 -4 3.36 -4 2 C-2.68 2 -1.36 2 0 2 C0 1.34 0 0.68 0 0 Z " fill="#F4F5F5" transform="translate(96,164)"/>
<path d="M0 0 C0.33 0 0.66 0 1 0 C1 4.29 1 8.58 1 13 C-4.10434702 13.16890651 -9.20886798 13.32931488 -14.3137207 13.48217773 C-16.04686497 13.53523482 -17.7799423 13.59053083 -19.51293945 13.64819336 C-22.01759408 13.73112894 -24.52238648 13.80575458 -27.02734375 13.87890625 C-28.17166115 13.91945885 -28.17166115 13.91945885 -29.33909607 13.96083069 C-34.65457283 14.10516666 -39.72493948 13.67969326 -45 13 C-45 11.02 -45 9.04 -45 7 C-44.34 6.67 -43.68 6.34 -43 6 C-43 7.65 -43 9.3 -43 11 C-29.14 11 -15.28 11 -1 11 C-1 7.7 -1 4.4 -1 1 C-0.67 0.67 -0.34 0.34 0 0 Z " fill="#00366B" transform="translate(189,60)"/>
<path d="M0 0 C0.66 0.33 1.32 0.66 2 1 C2 4.96 2 8.92 2 13 C-4.93 13 -11.86 13 -19 13 C-19 12.67 -19 12.34 -19 12 C-17.35 12 -15.7 12 -14 12 C-14 11.01 -14 10.02 -14 9 C-10.7 9 -7.4 9 -4 9 C-4.33 7.68 -4.66 6.36 -5 5 C-4.67 4.34 -4.34 3.68 -4 3 C-3.34 3 -2.68 3 -2 3 C-2 2.34 -2 1.68 -2 1 C-1.34 0.67 -0.68 0.34 0 0 Z " fill="#81AAD9" transform="translate(190,161)"/>
<path d="M0 0 C-0.33 0.99 -0.66 1.98 -1 3 C-6.98922981 4.30200648 -12.96557993 4.18383378 -19.0625 4.1875 C-20.67608398 4.20586914 -20.67608398 4.20586914 -22.32226562 4.22460938 C-23.36189453 4.22654297 -24.40152344 4.22847656 -25.47265625 4.23046875 C-26.88430054 4.23663208 -26.88430054 4.23663208 -28.32446289 4.24291992 C-31.20993824 3.98093909 -33.37674532 3.20000897 -36 2 C-36 1.34 -36 0.68 -36 0 C-35.1121582 0.00523682 -34.22431641 0.01047363 -33.30957031 0.01586914 C-30.00715482 0.03293868 -26.70478641 0.04546363 -23.40234375 0.05493164 C-21.97460184 0.05995206 -20.54686504 0.06676972 -19.11914062 0.07543945 C-17.06378921 0.08760553 -15.00850593 0.09325128 -12.953125 0.09765625 C-11.71723633 0.10289307 -10.48134766 0.10812988 -9.20800781 0.11352539 C-0.39658849 -0.19829424 -0.39658849 -0.19829424 0 0 Z " fill="#034C83" transform="translate(126,108)"/>
<path d="M0 0 C3.5 0.25 3.5 0.25 5.5 2.25 C5.82954432 5.34771665 5.95334601 7.42331023 4.4375 10.1875 C1.31857551 11.89787795 -1.15557801 11.05513863 -4.5 10.25 C-5.88125018 7.48749964 -5.69079306 5.30268901 -5.5 2.25 C-3.5 0.25 -3.5 0.25 0 0 Z " fill="#1775C3" transform="translate(56.5,94.75)"/>
<path d="M0 0 C0.71551025 0.16226074 1.43102051 0.32452148 2.16821289 0.49169922 C4.95080861 0.99117023 7.48517974 1.1292709 10.30859375 1.1328125 C11.80036133 1.13474609 11.80036133 1.13474609 13.32226562 1.13671875 C14.35029297 1.13285156 15.37832031 1.12898438 16.4375 1.125 C17.46166016 1.12886719 18.48582031 1.13273437 19.54101562 1.13671875 C24.46907202 1.13033939 29.1584201 1.04637919 34 0 C34.495 1.485 34.495 1.485 35 3 C28.51758187 4.93093306 22.61855144 5.30460366 15.875 5.25 C14.43060547 5.26160156 14.43060547 5.26160156 12.95703125 5.2734375 C7.90878319 5.25954961 3.72508752 5.00458258 -1 3 C-0.67 2.01 -0.34 1.02 0 0 Z " fill="#024C82" transform="translate(91,123)"/>
<path d="M0 0 C1.75570312 0.01353516 1.75570312 0.01353516 3.546875 0.02734375 C4.43890625 0.03894531 5.3309375 0.05054687 6.25 0.0625 C6.25 2.0425 6.25 4.0225 6.25 6.0625 C4.1877952 6.116848 2.12517184 6.15544961 0.0625 6.1875 C-1.08605469 6.21070312 -2.23460938 6.23390625 -3.41796875 6.2578125 C-6.66740372 6.06734152 -8.83660521 5.45610127 -11.75 4.0625 C-11.42 3.0725 -11.09 2.0825 -10.75 1.0625 C-7.32735681 -0.36360133 -3.65120467 -0.03651205 0 0 Z " fill="#013D73" transform="translate(101.75,89.9375)"/>
<path d="M0 0 C0 0.33 0 0.66 0 1 C-4.62 1.33 -9.24 1.66 -14 2 C-14 2.33 -14 2.66 -14 3 C-32.81 3.495 -32.81 3.495 -52 4 C-51 2 -51 2 -48 1 C-44.82296761 0.66505149 -41.62864614 0.57332312 -38.4375 0.4375 C-37.48472168 0.3950415 -36.53194336 0.35258301 -35.55029297 0.30883789 C-23.70397887 -0.16543455 -11.85324665 -0.09231501 0 0 Z " fill="#5C6F89" transform="translate(82,60)"/>
<path d="M0 0 C0.66 0.33 1.32 0.66 2 1 C2 4.96 2 8.92 2 13 C-0.97 13 -3.94 13 -7 13 C-7.33 12.34 -7.66 11.68 -8 11 C-10.01669827 9.86649466 -10.01669827 9.86649466 -12 9 C-9.36 9 -6.72 9 -4 9 C-4 8.34 -4 7.68 -4 7 C-6.97 7 -9.94 7 -13 7 C-13 6.67 -13 6.34 -13 6 C-10.03 6 -7.06 6 -4 6 C-3.67 5.01 -3.34 4.02 -3 3 C-1.4375 1.3125 -1.4375 1.3125 0 0 Z " fill="#82ABDB" transform="translate(80,47)"/>
<path d="M0 0 C0.04241723 2.33294775 0.04092937 4.66702567 0 7 C-1.66561399 8.66561399 -3.65962705 8.17115945 -5.9375 8.1875 C-6.83339844 8.20167969 -7.72929688 8.21585938 -8.65234375 8.23046875 C-11 8 -11 8 -13 6 C-13.125 3.375 -13.125 3.375 -13 1 C-8.60563789 0.14256349 -4.47427924 -0.08948558 0 0 Z " fill="#3D8BCC" transform="translate(121,96)"/>
<path d="M0 0 C0.99 0.33 1.98 0.66 3 1 C-8.83907922 11.43771882 -25.42254671 23.79891341 -42 23 C-38.72031144 20.81354096 -35.89108006 19.95954933 -32.125 18.8125 C-20.10471869 14.95045107 -9.00505972 9.00505972 0 0 Z " fill="#F69724" transform="translate(163,181)"/>
<path d="M0 0 C0.33 0 0.66 0 1 0 C1 4.29 1 8.58 1 13 C-8.24 13 -17.48 13 -27 13 C-27 12.67 -27 12.34 -27 12 C-18.32910197 9.66552745 -9.89543642 9.80134261 -1 10 C-1.020625 8.906875 -1.04125 7.81375 -1.0625 6.6875 C-1 3 -1 3 0 0 Z " fill="#414F67" transform="translate(194,164)"/>
<path d="M0 0 C0.66 0 1.32 0 2 0 C0.42604932 3.64135617 -1.8445023 6.26954288 -4.4375 9.25 C-8.18186165 13.73480616 -10.41543436 17.40120142 -12 23 C-13.65 23 -15.3 23 -17 23 C-17.625 20.625 -17.625 20.625 -18 18 C-16 16 -16 16 -14.16015625 15.70703125 C-10.86686806 14.62911956 -9.54512501 12.37998204 -7.4375 9.6875 C-6.67308594 8.72199219 -5.90867188 7.75648437 -5.12109375 6.76171875 C-3.8301732 5.08090692 -2.5647556 3.37954521 -1.34765625 1.64453125 C-0.90292969 1.10183594 -0.45820313 0.55914062 0 0 Z " fill="#F79722" transform="translate(150,76)"/>
<path d="M0 0 C2.475 0.495 2.475 0.495 5 1 C5 2.65 5 4.3 5 6 C4.45472656 6.1959375 3.90945312 6.391875 3.34765625 6.59375 C-2.43414464 8.88670352 -6.42757107 11.84557901 -10.859375 16.1953125 C-13.14435358 18.12169955 -15.1853821 19.04539183 -18 20 C-14.43815773 15.20877482 -10.28544366 11.96412891 -5.55859375 8.37890625 C-2.78143866 5.796788 -1.48012419 3.46359029 0 0 Z " fill="#F79A28" transform="translate(80,134)"/>
<path d="M0 0 C3.74516174 3.13370676 7.27985582 6.25414882 10.625 9.8125 C13.26453952 12.51758114 15.06713201 13.88082218 19 14 C19.38218767 15.65614657 19.71395102 17.32457024 20 19 C19 20 19 20 16.4375 20.0625 C15.633125 20.041875 14.82875 20.02125 14 20 C13.63261719 19.14148438 13.26523438 18.28296875 12.88671875 17.3984375 C10.68265977 13.42839337 8.07075371 10.73358128 4.8125 7.625 C4.25369141 7.07972656 3.69488281 6.53445312 3.11914062 5.97265625 C1.75288448 4.64143231 0.37737443 3.3197169 -1 2 C-0.67 1.34 -0.34 0.68 0 0 Z " fill="#F79E36" transform="translate(65,70)"/>
<path d="M0 0 C0.33 1.32 0.66 2.64 1 4 C1.66 4 2.32 4 3 4 C3.05855176 7.52076232 3.0937806 11.0413976 3.125 14.5625 C3.15013672 16.0484668 3.15013672 16.0484668 3.17578125 17.56445312 C3.21274359 23.12728491 2.87082551 27.74843075 1 33 C0.67 33 0.34 33 0 33 C0 22.11 0 11.22 0 0 Z " fill="#31628B" transform="translate(143,40)"/>
<path d="M0 0 C1.21236328 0.02707031 1.21236328 0.02707031 2.44921875 0.0546875 C3.37154297 0.08949219 3.37154297 0.08949219 4.3125 0.125 C4.3125 1.115 4.3125 2.105 4.3125 3.125 C3.3225 3.62 3.3225 3.62 2.3125 4.125 C3.6325 4.785 4.9525 5.445 6.3125 6.125 C0.0425 6.125 -6.2275 6.125 -12.6875 6.125 C-4.85533217 -0.14073427 -4.85533217 -0.14073427 0 0 Z " fill="#9BBBE2" transform="translate(160.6875,63.875)"/>
<path d="M0 0 C0.99 0 1.98 0 3 0 C4.11165232 4.4378561 4.11527763 8.76956386 4.0625 13.3125 C4.05798828 14.05306641 4.05347656 14.79363281 4.04882812 15.55664062 C4.03712175 17.37112899 4.01918898 19.18557534 4 21 C7.465 20.505 7.465 20.505 11 20 C8.35261084 21.4606285 7.10551666 22 4 22 C4 23.98 4 25.96 4 28 C3.67 28 3.34 28 3 28 C2.67 23.38 2.34 18.76 2 14 C1.67 17.63 1.34 21.26 1 25 C0.67 25 0.34 25 0 25 C0 16.75 0 8.5 0 0 Z " fill="#697F99" transform="translate(82,35)"/>
<path d="M0 0 C10.89 0 21.78 0 33 0 C33 0.33 33 0.66 33 1 C30.03 1 27.06 1 24 1 C24 1.66 24 2.32 24 3 C26.97 3 29.94 3 33 3 C33 3.33 33 3.66 33 4 C30.03 4 27.06 4 24 4 C23.67 4.66 23.34 5.32 23 6 C23 5.34 23 4.68 23 4 C15.41 4 7.82 4 0 4 C0 3.67 0 3.34 0 3 C7.59 3 15.18 3 23 3 C23 2.34 23 1.68 23 1 C15.41 1 7.82 1 0 1 C0 0.67 0 0.34 0 0 Z " fill="#87AEDC" transform="translate(152,160)"/>
<path d="M0 0 C3.92519369 0.56717248 5.85666783 2.44322569 8.75 5.0625 C16.77561304 11.83343499 26.22920531 16.24635493 36 20 C31.38547311 21.50642139 28.30994163 19.76120074 24.125 17.75 C23.37992188 17.39663574 22.63484375 17.04327148 21.8671875 16.67919922 C14.75188386 13.14726172 3.68024603 7.36049206 0 0 Z " fill="#F79722" transform="translate(46,181)"/>
<path d="M0 0 C2.5 0.25 2.5 0.25 4.5 2.25 C4.8125 4.75 4.8125 4.75 4.5 7.25 C1.5 9.25 1.5 9.25 -1.1875 8.875 C-1.950625 8.66875 -2.71375 8.4625 -3.5 8.25 C-4.125 5.375 -4.125 5.375 -4.5 2.25 C-2.5 0.25 -2.5 0.25 0 0 Z " fill="#F9B86B" transform="translate(192.5,112.75)"/>
<path d="M0 0 C2.5 0.25 2.5 0.25 4.5 2.25 C4.125 5.375 4.125 5.375 3.5 8.25 C1.1875 8.875 1.1875 8.875 -1.5 9.25 C-2.49 8.59 -3.48 7.93 -4.5 7.25 C-4.8125 4.75 -4.8125 4.75 -4.5 2.25 C-2.5 0.25 -2.5 0.25 0 0 Z " fill="#F9B25C" transform="translate(27.5,97.75)"/>
<path d="M0 0 C0.33 0 0.66 0 1 0 C1.0270817 2.72923388 1.04687847 5.45819637 1.0625 8.1875 C1.07087891 8.95642578 1.07925781 9.72535156 1.08789062 10.51757812 C1.10491934 14.48526789 0.98604115 18.12571234 0 22 C-2.58361518 22.05407567 -5.16609255 22.093707 -7.75 22.125 C-8.47960937 22.14175781 -9.20921875 22.15851562 -9.9609375 22.17578125 C-14.13521398 22.21372922 -16.16970546 21.91514727 -20 20 C-14.06 19.67 -8.12 19.34 -2 19 C-1.34 12.73 -0.68 6.46 0 0 Z " fill="#44546F" transform="translate(84,41)"/>
<path d="M0 0 C0 4.62 0 9.24 0 14 C-1.65 13.67 -3.3 13.34 -5 13 C-5.33 9.04 -5.66 5.08 -6 1 C-2 0 -2 0 0 0 Z " fill="#258CD0" transform="translate(126,94)"/>
<path d="M0 0 C1.65 0 3.3 0 5 0 C5.515625 1.175625 6.03125 2.35125 6.5625 3.5625 C8.88436871 8.26491281 12.13237825 11.52348606 16 15 C15.67 15.66 15.34 16.32 15 17 C14.00419922 15.93458984 14.00419922 15.93458984 12.98828125 14.84765625 C12.10527344 13.92855469 11.22226563 13.00945312 10.3125 12.0625 C9.44238281 11.14597656 8.57226562 10.22945312 7.67578125 9.28515625 C4.94558908 6.95353228 3.51807447 6.29792703 0 6 C-1.125 2.25 -1.125 2.25 0 0 Z " fill="#F79315" transform="translate(121,145)"/>
<path d="M0 0 C0.33 0 0.66 0 1 0 C1 1.65 1 3.3 1 5 C10.24 5 19.48 5 29 5 C29 5.33 29 5.66 29 6 C25.68907291 6.36999418 22.37617103 6.71802045 19.0625 7.0625 C17.67321289 7.2181543 17.67321289 7.2181543 16.25585938 7.37695312 C10.28676541 7.98433462 4.93932274 7.87110067 -1 7 C-1.04254356 5.00045254 -1.04080783 2.99958364 -1 1 C-0.67 0.67 -0.34 0.34 0 0 Z " fill="#00497C" transform="translate(145,66)"/>
<path d="M0 0 C0.33 0 0.66 0 1 0 C1.46233492 3.9760803 1.30954571 5.56851204 -1.0625 8.875 C-4.72684819 11.52580508 -6.56585675 11.64496629 -11 11 C-13.4375 9.5 -13.4375 9.5 -15 8 C-14.67 7.34 -14.34 6.68 -14 6 C-12.35 6.33 -10.7 6.66 -9 7 C-9 7.66 -9 8.32 -9 9 C-8.01 9 -7.02 9 -6 9 C-6 8.34 -6 7.68 -6 7 C-5.01 7 -4.02 7 -3 7 C-3 6.01 -3 5.02 -3 4 C-2.34 3.67 -1.68 3.34 -1 3 C-0.67 2.01 -0.34 1.02 0 0 Z " fill="#848589" transform="translate(105,169)"/>
<path d="M0 0 C0.66 1.32 1.32 2.64 2 4 C3.65 4 5.3 4 7 4 C7.66 2.68 8.32 1.36 9 0 C9.66 2.31 10.32 4.62 11 7 C10.360625 7.12375 9.72125 7.2475 9.0625 7.375 C8.381875 7.58125 7.70125 7.7875 7 8 C6.67 8.66 6.34 9.32 6 10 C5.01 10 4.02 10 3 10 C2.34 9.34 1.68 8.68 1 8 C0.01 7.67 -0.98 7.34 -2 7 C-1.34 4.69 -0.68 2.38 0 0 Z " fill="#808185" transform="translate(151,104)"/>
<path d="M0 0 C1.31225809 3.93677426 0.3393954 5.7794262 -0.9375 9.6875 C-1.50791016 11.45673828 -1.50791016 11.45673828 -2.08984375 13.26171875 C-2.54037109 14.61716797 -2.54037109 14.61716797 -3 16 C-3.33 16 -3.66 16 -4 16 C-4 13.69 -4 11.38 -4 9 C-5.98 9 -7.96 9 -10 9 C-9.67 7.68 -9.34 6.36 -9 5 C-7.68 4.67 -6.36 4.34 -5 4 C-4.01 5.485 -4.01 5.485 -3 7 C-2.01 4.69 -1.02 2.38 0 0 Z " fill="#B28F5B" transform="translate(45,91)"/>
<path d="M0 0 C1.22589844 0.01353516 1.22589844 0.01353516 2.4765625 0.02734375 C3.41628906 0.04474609 3.41628906 0.04474609 4.375 0.0625 C4.705 1.0525 5.035 2.0425 5.375 3.0625 C0.41426578 4.38536246 -4.53611512 4.15143197 -9.625 4.0625 C-6.41036203 0.70174212 -4.65285589 -0.06646937 0 0 Z " fill="#9ABAE1" transform="translate(156.625,169.9375)"/>
<path d="M0 0 C2.64 0.33 5.28 0.66 8 1 C7 4 7 4 4 6 C1.73828125 6.1953125 1.73828125 6.1953125 -0.6875 6.125 C-1.89986328 6.09792969 -1.89986328 6.09792969 -3.13671875 6.0703125 C-4.05904297 6.03550781 -4.05904297 6.03550781 -5 6 C-4 4 -4 4 -1 3 C-0.67 2.01 -0.34 1.02 0 0 Z " fill="#F6951B" transform="translate(195,125)"/>
<path d="M0 0 C8.415 1.485 8.415 1.485 17 3 C17 3.66 17 4.32 17 5 C4.33029613 5.3690205 4.33029613 5.3690205 -1 3 C-0.67 2.01 -0.34 1.02 0 0 Z " fill="#003E73" transform="translate(91,123)"/>
<path d="M0 0 C6.01326751 0.57914667 12.00892722 1.22337945 18 2 C18 2.66 18 3.32 18 4 C15.9377952 4.054348 13.87517184 4.09294961 11.8125 4.125 C10.66394531 4.14820312 9.51539062 4.17140625 8.33203125 4.1953125 C5.08259628 4.00484152 2.91339479 3.39360127 0 2 C0 1.34 0 0.68 0 0 Z " fill="#013E73" transform="translate(90,108)"/>
<path d="M0 0 C0.33 0 0.66 0 1 0 C1.19335938 1.03898438 1.38671875 2.07796875 1.5859375 3.1484375 C3.00873389 10.7757241 4.44669656 18.3979502 6 26 C4 25 4 25 2.96484375 22.59375 C-2.12484204 7.26663538 -2.12484204 7.26663538 0 0 Z " fill="#F79D30" transform="translate(23,128)"/>
<path d="M0 0 C2.125 0.375 2.125 0.375 4 1 C4.38218767 2.65614657 4.71395102 4.32457024 5 6 C4 7 4 7 1.4375 7.0625 C0.2309375 7.0315625 0.2309375 7.0315625 -1 7 C-1.625 4.625 -1.625 4.625 -2 2 C-1.34 1.34 -0.68 0.68 0 0 Z " fill="#D6D7D8" transform="translate(154,102)"/>
<path d="M0 0 C0.66 0 1.32 0 2 0 C2.05390357 2.93774463 2.0936255 5.87450232 2.125 8.8125 C2.15013672 10.06256836 2.15013672 10.06256836 2.17578125 11.33789062 C2.18222656 12.14033203 2.18867188 12.94277344 2.1953125 13.76953125 C2.20578613 14.50792236 2.21625977 15.24631348 2.22705078 16.00708008 C2 18 2 18 0 21 C-0.19592461 17.68794116 -0.38032746 14.37534146 -0.5625 11.0625 C-0.61857422 10.11697266 -0.67464844 9.17144531 -0.73242188 8.19726562 C-0.78076172 7.29814453 -0.82910156 6.39902344 -0.87890625 5.47265625 C-0.9260376 4.64000244 -0.97316895 3.80734863 -1.02172852 2.94946289 C-1 1 -1 1 0 0 Z " fill="#50617B" transform="translate(193,146)"/>
<path d="M0 0 C6.52307692 0.61538462 6.52307692 0.61538462 8.9375 2.5625 C9.288125 3.036875 9.63875 3.51125 10 4 C9.67 4.99 9.34 5.98 9 7 C8.236875 6.67 7.47375 6.34 6.6875 6 C4.00930865 4.82563314 4.00930865 4.82563314 1 5 C0.67 3.35 0.34 1.7 0 0 Z " fill="#F6951A" transform="translate(29,89)"/>
<path d="M0 0 C1.98 0 3.96 0 6 0 C6.38218767 1.65614657 6.71395102 3.32457024 7 5 C6 6 6 6 3.5 6.125 C1 6 1 6 0 5 C-0.04063832 3.33382885 -0.042721 1.66611905 0 0 Z " fill="#F7951B" transform="translate(78,84)"/>
<path d="M0 0 C0.99 0 1.98 0 3 0 C3 3.96 3 7.92 3 12 C2.01 11.67 1.02 11.34 0 11 C0 7.37 0 3.74 0 0 Z " fill="#268DD1" transform="translate(121,128)"/>
<path d="M0 0 C1.67542976 0.28604898 3.34385343 0.61781233 5 1 C4.67 2.65 4.34 4.3 4 6 C3.01 6.33 2.02 6.66 1 7 C0.34 6.67 -0.32 6.34 -1 6 C-1.042721 4.33388095 -1.04063832 2.66617115 -1 1 C-0.67 0.67 -0.34 0.34 0 0 Z " fill="#1B78C4" transform="translate(137,122)"/>
<path d="M0 0 C0.33 0.66 0.66 1.32 1 2 C-5.27 2 -11.54 2 -18 2 C-18 1.67 -18 1.34 -18 1 C-11.6619813 -0.57151693 -6.43223981 -1.40339778 0 0 Z " fill="#49576C" transform="translate(185,175)"/>
<path d="M0 0 C0 4.29 0 8.58 0 13 C-0.66 13 -1.32 13 -2 13 C-2 9.37 -2 5.74 -2 2 C-3.98 2 -5.96 2 -8 2 C-8 1.67 -8 1.34 -8 1 C-5.23735711 0.40267181 -2.83967231 0 0 0 Z " fill="#0D70BE" transform="translate(126,126)"/>
<path d="M0 0 C0.99 0 1.98 0 3 0 C3 3.63 3 7.26 3 11 C2.01 11 1.02 11 0 11 C0 7.37 0 3.74 0 0 Z " fill="#238DD2" transform="translate(121,112)"/>
<path d="M0 0 C0.99 0.33 1.98 0.66 3 1 C2.67 2.32 2.34 3.64 2 5 C2.99 5 3.98 5 5 5 C5 5.99 5 6.98 5 8 C3.68 8.33 2.36 8.66 1 9 C1 7.68 1 6.36 1 5 C0.01 4.67 -0.98 4.34 -2 4 C-2 3.01 -2 2.02 -2 1 C-1.34 0.67 -0.68 0.34 0 0 Z " fill="#898A8E" transform="translate(159,99)"/>
<path d="M0 0 C0.66 0 1.32 0 2 0 C2.36923077 7.38461538 2.36923077 7.38461538 0.5 10.5 C0.005 10.995 -0.49 11.49 -1 12 C-2.11658501 7.31034294 -1.80619523 4.46236469 0 0 Z " fill="#F59316" transform="translate(39,100)"/>
<path d="M0 0 C2.0625 0.4375 2.0625 0.4375 4 1 C3.67 2.65 3.34 4.3 3 6 C1.68 5.67 0.36 5.34 -1 5 C-1 1 -1 1 0 0 Z " fill="#A0A1A3" transform="translate(96,168)"/>
<path d="M0 0 C0.66 0.33 1.32 0.66 2 1 C2 2.32 2 3.64 2 5 C-0.64738916 6.4606285 -1.89448334 7 -5 7 C-4.67 5.68 -4.34 4.36 -4 3 C-3.34 3 -2.68 3 -2 3 C-2 2.34 -2 1.68 -2 1 C-1.34 0.67 -0.68 0.34 0 0 Z " fill="#88AEDD" transform="translate(190,161)"/>
<path d="M0 0 C0 3.96 0 7.92 0 12 C-0.66 12 -1.32 12 -2 12 C-2 8.7 -2 5.4 -2 2 C-3.32 1.67 -4.64 1.34 -6 1 C-3.92446352 0.4465236 -2.15634036 0 0 0 Z " fill="#0C70BE" transform="translate(126,94)"/>
<path d="M0 0 C2.5625 0.1875 2.5625 0.1875 4.5625 2.1875 C4.1875 4.3125 4.1875 4.3125 3.5625 6.1875 C2.9025 5.1975 2.2425 4.2075 1.5625 3.1875 C0.5725 3.1875 -0.4175 3.1875 -1.4375 3.1875 C-1.7675 3.8475 -2.0975 4.5075 -2.4375 5.1875 C-3.0975 5.1875 -3.7575 5.1875 -4.4375 5.1875 C-3.32386364 0.25568182 -3.32386364 0.25568182 0 0 Z " fill="#F69009" transform="translate(192.4375,112.8125)"/>
<path d="M0 0 C1.32 0.33 2.64 0.66 4 1 C3.67 2.65 3.34 4.3 3 6 C1.35 5.67 -0.3 5.34 -2 5 C-2 4.01 -2 3.02 -2 2 C-1.34 2 -0.68 2 0 2 C0 1.34 0 0.68 0 0 Z " fill="#F6910F" transform="translate(187,103)"/>
<path d="M0 0 C1.32 0 2.64 0 4 0 C3.67 2.31 3.34 4.62 3 7 C2.34 7 1.68 7 1 7 C0.67 6.01 0.34 5.02 0 4 C-0.66 3.34 -1.32 2.68 -2 2 C-1.34 1.34 -0.68 0.68 0 0 Z " fill="#9BBBE2" transform="translate(184,44)"/>
<path d="M0 0 C2.02910711 0.25327449 4.04962145 0.57730068 6.0625 0.9375 C7.16722656 1.13214844 8.27195312 1.32679688 9.41015625 1.52734375 C10.69212891 1.76130859 10.69212891 1.76130859 12 2 C11.34 2.66 10.68 3.32 10 4 C2.81578947 3.54385965 2.81578947 3.54385965 -1 1 C-0.67 0.67 -0.34 0.34 0 0 Z " fill="#F8A442" transform="translate(82,201)"/>
<path d="M0 0 C-0.33 0.99 -0.66 1.98 -1 3 C-1.66 3 -2.32 3 -3 3 C-3.99 3.33 -4.98 3.66 -6 4 C-6 6.31 -6 8.62 -6 11 C-6.33 11 -6.66 11 -7 11 C-7.08096803 9.54257537 -7.13917774 8.08387193 -7.1875 6.625 C-7.22230469 5.81289062 -7.25710937 5.00078125 -7.29296875 4.1640625 C-7.19628906 3.44992188 -7.09960938 2.73578125 -7 2 C-4 0 -4 0 0 0 Z " fill="#A4C1E4" transform="translate(192,149)"/>
<path d="M0 0 C1.65 0.33 3.3 0.66 5 1 C4.67 2.32 4.34 3.64 4 5 C2.35 4.67 0.7 4.34 -1 4 C-0.67 2.68 -0.34 1.36 0 0 Z " fill="#F69110" transform="translate(21,89)"/>
<path d="M0 0 C0.99 0.33 1.98 0.66 3 1 C2.41196203 4.02419525 1.77321882 7.01758453 1 10 C0.67 9.34 0.34 8.68 0 8 C-0.99 7.67 -1.98 7.34 -3 7 C-2.34 6.67 -1.68 6.34 -1 6 C-1.0309375 4.7934375 -1.0309375 4.7934375 -1.0625 3.5625 C-1 1 -1 1 0 0 Z " fill="#F69E33" transform="translate(36,104)"/>
<path d="M0 0 C2.375 -0.125 2.375 -0.125 5 0 C7 2 7 2 7 5 C6.34 5 5.68 5 5 5 C4.67 4.34 4.34 3.68 4 3 C1.47266765 2.34444881 1.47266765 2.34444881 -1 2 C-0.67 1.34 -0.34 0.68 0 0 Z " fill="#F69008" transform="translate(25,98)"/>
<path d="M0 0 C0.99 0 1.98 0 3 0 C2.67 2.64 2.34 5.28 2 8 C1.67 6.68 1.34 5.36 1 4 C0.34 4 -0.32 4 -1 4 C-0.67 2.68 -0.34 1.36 0 0 Z " fill="#F79212" transform="translate(203,111)"/>
<path d="M0 0 C0.66 0 1.32 0 2 0 C2.25 6.625 2.25 6.625 0 10 C-0.19412181 8.52168779 -0.38012131 7.04230684 -0.5625 5.5625 C-0.66691406 4.73878906 -0.77132812 3.91507813 -0.87890625 3.06640625 C-0.91886719 2.38449219 -0.95882812 1.70257813 -1 1 C-0.67 0.67 -0.34 0.34 0 0 Z " fill="#005485" transform="translate(188,41)"/>
<path d="M0 0 C0.66 0.33 1.32 0.66 2 1 C-1.465 3.97 -1.465 3.97 -5 7 C-5.66 6.67 -6.32 6.34 -7 6 C-4.69 4.02 -2.38 2.04 0 0 Z " fill="#F69112" transform="translate(69,147)"/>
<path d="M0 0 C1.20628008 2.33214148 2.1654738 4.49642139 3 7 C1.68 7 0.36 7 -1 7 C-1 4.37886292 -0.68707555 2.49064888 0 0 Z " fill="#7B7C80" transform="translate(159,104)"/>
</svg>
