<?xml version="1.0" encoding="UTF-8"?>
<svg version="1.1" xmlns="http://www.w3.org/2000/svg" width="275" height="183">
<path d="M0 0 C90.75 0 181.5 0 275 0 C275 60.39 275 120.78 275 183 C184.25 183 93.5 183 0 183 C0 122.61 0 62.22 0 0 Z " fill="#F7F7F7" transform="translate(0,0)"/>
<path d="M0 0 C9.79157972 8.13881662 15.63778258 17.78474966 19 30 C19.17128418 30.62084473 19.34256836 31.24168945 19.51904297 31.88134766 C22.46638478 44.86461275 19.65809283 58.83449036 13.25 70.25 C6.10441505 81.24457834 -3.3398081 89.86605979 -16 94 C-18.19140625 93.5625 -18.19140625 93.5625 -20 93 C-20.029729 92.03960815 -20.029729 92.03960815 -20.06005859 91.05981445 C-20.15563601 88.1436472 -20.26518214 85.22816428 -20.375 82.3125 C-20.4059375 81.30509766 -20.436875 80.29769531 -20.46875 79.25976562 C-20.50742188 78.28330078 -20.54609375 77.30683594 -20.5859375 76.30078125 C-20.6173584 75.40528564 -20.6487793 74.50979004 -20.68115234 73.5871582 C-21.02661113 70.78407493 -21.84681468 68.56735469 -23 66 C-22.21496094 65.85304688 -21.42992187 65.70609375 -20.62109375 65.5546875 C-13.72474393 64.08233797 -8.5804453 62.54757744 -4 57 C0.38191103 49.69681494 0.7947787 42.39162447 0 34 C-0.81732748 31.98663129 -0.81732748 31.98663129 -2 30.375 C-4.49537316 26.1640578 -4.29343527 23.33672256 -4.04296875 18.55078125 C-4.00234071 16.13895303 -4.29657813 14.29283311 -5 12 C-6.216875 12.103125 -7.43375 12.20625 -8.6875 12.3125 C-9.37199219 12.37050781 -10.05648437 12.42851563 -10.76171875 12.48828125 C-13.11749861 12.88326222 -13.11749861 12.88326222 -15.203125 14.50488281 C-20.14400668 17.1461153 -25.70034048 16.47959934 -31.18237305 16.44604492 C-33.29641093 16.43756454 -35.40771503 16.46627013 -37.52148438 16.49804688 C-45.11384801 16.53632808 -50.47064198 15.98803696 -57 12 C-59.81448914 11.23245168 -59.81448914 11.23245168 -62 11 C-62.02578125 12.0621875 -62.0515625 13.124375 -62.078125 14.21875 C-62.54305598 27.10419791 -62.54305598 27.10419791 -66.12890625 33.09375 C-68.83116281 39.00720829 -67.27504928 45.94333356 -65.375 51.875 C-62.77637088 58.27583383 -59.68969472 60.65515264 -53.5 63.75 C-50.29341907 64.89520748 -47.37167779 65.58881978 -44 66 C-45.45631068 72.55339806 -45.45631068 72.55339806 -47.75 74.4375 C-51.69257987 75.42314497 -54.72053885 75.54377099 -58.5 73.9375 C-60.77038115 72.17795461 -62.17599658 70.60318744 -63.9375 68.375 C-66.19171717 65.59382298 -66.75570091 65.06786086 -70.375 64.0625 C-71.24125 64.041875 -72.1075 64.02125 -73 64 C-72.52949219 64.50789063 -72.05898437 65.01578125 -71.57421875 65.5390625 C-68.70654864 68.70953007 -66.26908316 71.45148434 -64.375 75.3125 C-62.62082521 78.74111437 -61.59003651 79.57894388 -58 81 C-54.32255225 81.52905454 -50.71610658 81.77613816 -47 82 C-47 85.63 -47 89.26 -47 93 C-53.233355 94.55833875 -57.9043808 91.14591605 -63.24755859 88.08105469 C-75.32316382 80.63179585 -81.84816761 69.21443429 -86 56 C-86.33 55.01 -86.66 54.02 -87 53 C-88.59977085 35.19289554 -85.50442756 20.64387041 -74.0390625 6.59765625 C-54.59356524 -14.54661122 -23.08386111 -16.90010589 0 0 Z " fill="#1C1E23" transform="translate(167,20)"/>
<path d="M0 0 C0.76828125 -0.01224609 1.5365625 -0.02449219 2.328125 -0.03710938 C9.30966361 -0.05522755 9.30966361 -0.05522755 12.625 2.1875 C12.295 4.4975 11.965 6.8075 11.625 9.1875 C7.32684165 10.62021945 3.24688101 10.0518241 -1.24609375 9.83203125 C-4.46466658 9.91538714 -4.46466658 9.91538714 -6.72265625 12.07421875 C-9.66137339 15.83271986 -9.55810365 18.88822858 -9.5625 23.5 C-9.57667969 24.81613281 -9.59085938 26.13226563 -9.60546875 27.48828125 C-9.39096312 30.93127833 -8.95173941 33.15270049 -7.375 36.1875 C-3.95156027 38.82091518 0.4600474 38.77100474 4.625 39.1875 C4.625 35.8875 4.625 32.5875 4.625 29.1875 C2.315 29.1875 0.005 29.1875 -2.375 29.1875 C-2.375 26.2175 -2.375 23.2475 -2.375 20.1875 C3.235 20.1875 8.845 20.1875 14.625 20.1875 C14.625 28.1075 14.625 36.0275 14.625 44.1875 C6.34722629 48.32638686 0.15398293 50.11628327 -8.84765625 47.45703125 C-13.86706844 45.15842193 -16.87039864 42.04406201 -19.453125 37.140625 C-20.78336052 32.87936205 -20.74346693 28.81422341 -20.75 24.375 C-20.77449219 23.51068359 -20.79898438 22.64636719 -20.82421875 21.75585938 C-20.85424208 15.12570782 -19.60229974 9.50611883 -14.85644531 4.62597656 C-9.83872895 0.3281271 -6.40732224 0.0053217 0 0 Z " fill="#191516" transform="translate(68.375,122.8125)"/>
<path d="M0 0 C3.3 0 6.6 0 10 0 C10 5.61 10 11.22 10 17 C14.29 17 18.58 17 23 17 C23 11.39 23 5.78 23 0 C26.3 0 29.6 0 33 0 C33 15.18 33 30.36 33 46 C29.7 46 26.4 46 23 46 C23 39.4 23 32.8 23 26 C18.71 26 14.42 26 10 26 C10 32.6 10 39.2 10 46 C6.7 46 3.4 46 0 46 C0 30.82 0 15.64 0 0 Z " fill="#181415" transform="translate(127,124)"/>
<path d="M0 0 C2.97 0 5.94 0 9 0 C9 4.95 9 9.9 9 15 C10.32 14.34 11.64 13.68 13 13 C18.31237628 12.57838283 21.73772763 12.46840289 26 16 C29.17272703 20.16372409 29.45975769 23.86616462 29.375 28.9375 C29.38660156 29.62779297 29.39820313 30.31808594 29.41015625 31.02929688 C29.37845672 36.6031315 28.02948439 40.65828724 24.375 44.875 C19.73391331 47.07340949 14.72410317 46.56297247 9.9375 45 C8.9784375 44.505 8.9784375 44.505 8 44 C7.505 44.495 7.505 44.495 7 45 C4.69 45 2.38 45 0 45 C0 30.15 0 15.3 0 0 Z " fill="#161113" transform="translate(198,125)"/>
<path d="M0 0 C3.3 0 6.6 0 10 0 C10.06058594 1.57652344 10.12117187 3.15304688 10.18359375 4.77734375 C10.26797987 6.83073943 10.35262883 8.88412431 10.4375 10.9375 C10.47681641 11.97841797 10.51613281 13.01933594 10.55664062 14.09179688 C10.61948242 15.57583008 10.61948242 15.57583008 10.68359375 17.08984375 C10.72025146 18.00628662 10.75690918 18.92272949 10.79467773 19.86694336 C10.77003864 21.9820728 10.77003864 21.9820728 12 23 C14.31 23 16.62 23 19 23 C19 15.41 19 7.82 19 0 C22.3 0 25.6 0 29 0 C29 10.23 29 20.46 29 31 C25.66666667 31 22.33333333 31 19 31 C18.443125 31.165 17.88625 31.33 17.3125 31.5 C12.61163085 32.51640414 8.54179369 32.63682783 4.125 30.8125 C0.95761857 28.11090996 0.10988734 25.34097999 -0.22705078 21.22924805 C-0.21657715 20.24996338 -0.20610352 19.27067871 -0.1953125 18.26171875 C-0.18886719 17.19501953 -0.18242187 16.12832031 -0.17578125 15.02929688 C-0.15902344 13.92650391 -0.14226562 12.82371094 -0.125 11.6875 C-0.11597656 10.56537109 -0.10695312 9.44324219 -0.09765625 8.28710938 C-0.07414486 5.52452091 -0.04128155 2.76237068 0 0 Z " fill="#191517" transform="translate(164,139)"/>
<path d="M0 0 C3.3 0 6.6 0 10 0 C10 2.97 10 5.94 10 9 C12.31 9 14.62 9 17 9 C17 11.64 17 14.28 17 17 C14.69 17 12.38 17 10 17 C10.33 21.95 10.66 26.9 11 32 C12.98 32.33 14.96 32.66 17 33 C17 35.31 17 37.62 17 40 C13.38069302 41.20643566 10.80768995 41.32268559 7 41 C1.31578947 37.94736842 1.31578947 37.94736842 0 34 C-0.07973476 32.66474283 -0.10771338 31.32587917 -0.09765625 29.98828125 C-0.09443359 29.23095703 -0.09121094 28.47363281 -0.08789062 27.69335938 C-0.07951172 26.90767578 -0.07113281 26.12199219 -0.0625 25.3125 C-0.05798828 24.51521484 -0.05347656 23.71792969 -0.04882812 22.89648438 C-0.0370585 20.93095743 -0.01912348 18.96546915 0 17 C-1.65 17 -3.3 17 -5 17 C-5 14.69 -5 12.38 -5 10 C-3.68 9.67 -2.36 9.34 -1 9 C-0.67 6.03 -0.34 3.06 0 0 Z " fill="#1A1718" transform="translate(106,130)"/>
<path d="M0 0 C2.97 0 5.94 0 9 0 C9 10.23 9 20.46 9 31 C6.03 31 3.06 31 0 31 C0 20.77 0 10.54 0 0 Z " fill="#110D0F" transform="translate(88,139)"/>
<path d="M0 0 C2.35101344 1.80244364 2.89686881 3.21935419 3.28125 6.12890625 C3.4206966 9.65574309 3.30326835 12.30922209 1.875 15.5625 C-0.80057359 17.61377309 -2.71772983 17.34917768 -6 17 C-6.66 16.67 -7.32 16.34 -8 16 C-8 11.05 -8 6.1 -8 1 C-5.17116253 -0.41441874 -3.12623255 -0.31900332 0 0 Z " fill="#EDEDED" transform="translate(215,146)"/>
<path d="M0 0 C5.61 0 11.22 0 17 0 C17 7.92 17 15.84 17 24 C16.01 24 15.02 24 14 24 C14.33 16.74 14.66 9.48 15 2 C10.71 2 6.42 2 2 2 C2 3.98 2 5.96 2 8 C3.65 8 5.3 8 7 8 C7 8.33 7 8.66 7 9 C4.69 9 2.38 9 0 9 C0 6.03 0 3.06 0 0 Z " fill="#2E2E2E" transform="translate(66,143)"/>
<path d="M0 0 C2.4375 0.75 2.4375 0.75 4.4375 2.75 C4.0625 6.375 4.0625 6.375 3.4375 9.75 C-2.94957103 11.07561852 -2.94957103 11.07561852 -5.5625 9.6875 C-7.07889353 6.74948754 -6.48543717 4.84843192 -5.5625 1.75 C-2.5625 -0.25 -2.5625 -0.25 0 0 Z " fill="#1E1A1B" transform="translate(93.5625,125.25)"/>
</svg>
